<?xml version="1.0" standalone="no"?>
<!DOCTYPE svg PUBLIC "-//W3C//DTD SVG 1.1//EN" "http://www.w3.org/Graphics/SVG/1.1/DTD/svg11.dtd">
<svg version="1.1" width="2400" height="1174" onload="init(evt)" viewBox="0 0 2400 1174" xmlns="http://www.w3.org/2000/svg" xmlns:xlink="http://www.w3.org/1999/xlink">
<!-- Flame graph stack visualization. See https://github.com/brendangregg/FlameGraph for latest version, and http://www.brendangregg.com/flamegraphs.html for examples. -->
<!-- NOTES:  -->
<defs>
	<linearGradient id="background" y1="0" y2="1" x1="0" x2="0" >
		<stop stop-color="#eeeeee" offset="5%" />
		<stop stop-color="#eeeeb0" offset="95%" />
	</linearGradient>
</defs>
<style type="text/css">
	text { font-family:Verdana; font-size:12px; fill:rgb(0,0,0); }
	#search, #ignorecase { opacity:0.1; cursor:pointer; }
	#search:hover, #search.show, #ignorecase:hover, #ignorecase.show { opacity:1; }
	#subtitle { text-anchor:middle; font-color:rgb(160,160,160); }
	#title { text-anchor:middle; font-size:17px}
	#unzoom { cursor:pointer; }
	#frames > *:hover { stroke:black; stroke-width:0.5; cursor:pointer; }
	.hide { display:none; }
	.parent { opacity:0.5; }
</style>
<script type="text/ecmascript">
<![CDATA[
	"use strict";
	var details, searchbtn, unzoombtn, matchedtxt, svg, searching, currentSearchTerm, ignorecase, ignorecaseBtn;
	function init(evt) {
		details = document.getElementById("details").firstChild;
		searchbtn = document.getElementById("search");
		ignorecaseBtn = document.getElementById("ignorecase");
		unzoombtn = document.getElementById("unzoom");
		matchedtxt = document.getElementById("matched");
		svg = document.getElementsByTagName("svg")[0];
		searching = 0;
		currentSearchTerm = null;

		// use GET parameters to restore a flamegraphs state.
		var params = get_params();
		if (params.x && params.y)
			zoom(find_group(document.querySelector('[x="' + params.x + '"][y="' + params.y + '"]')));
                if (params.s) search(params.s);
	}

	// event listeners
	window.addEventListener("click", function(e) {
		var target = find_group(e.target);
		if (target) {
			if (target.nodeName == "a") {
				if (e.ctrlKey === false) return;
				e.preventDefault();
			}
			if (target.classList.contains("parent")) unzoom(true);
			zoom(target);
			if (!document.querySelector('.parent')) {
				// we have basically done a clearzoom so clear the url
				var params = get_params();
				if (params.x) delete params.x;
				if (params.y) delete params.y;
				history.replaceState(null, null, parse_params(params));
				unzoombtn.classList.add("hide");
				return;
			}

			// set parameters for zoom state
			var el = target.querySelector("rect");
			if (el && el.attributes && el.attributes.y && el.attributes._orig_x) {
				var params = get_params()
				params.x = el.attributes._orig_x.value;
				params.y = el.attributes.y.value;
				history.replaceState(null, null, parse_params(params));
			}
		}
		else if (e.target.id == "unzoom") clearzoom();
		else if (e.target.id == "search") search_prompt();
		else if (e.target.id == "ignorecase") toggle_ignorecase();
	}, false)

	// mouse-over for info
	// show
	window.addEventListener("mouseover", function(e) {
		var target = find_group(e.target);
		if (target) details.nodeValue = "Function: " + g_to_text(target);
	}, false)

	// clear
	window.addEventListener("mouseout", function(e) {
		var target = find_group(e.target);
		if (target) details.nodeValue = ' ';
	}, false)

	// ctrl-F for search
	// ctrl-I to toggle case-sensitive search
	window.addEventListener("keydown",function (e) {
		if (e.keyCode === 114 || (e.ctrlKey && e.keyCode === 70)) {
			e.preventDefault();
			search_prompt();
		}
		else if (e.ctrlKey && e.keyCode === 73) {
			e.preventDefault();
			toggle_ignorecase();
		}
	}, false)

	// functions
	function get_params() {
		var params = {};
		var paramsarr = window.location.search.substr(1).split('&');
		for (var i = 0; i < paramsarr.length; ++i) {
			var tmp = paramsarr[i].split("=");
			if (!tmp[0] || !tmp[1]) continue;
			params[tmp[0]]  = decodeURIComponent(tmp[1]);
		}
		return params;
	}
	function parse_params(params) {
		var uri = "?";
		for (var key in params) {
			uri += key + '=' + encodeURIComponent(params[key]) + '&';
		}
		if (uri.slice(-1) == "&")
			uri = uri.substring(0, uri.length - 1);
		if (uri == '?')
			uri = window.location.href.split('?')[0];
		return uri;
	}
	function find_child(node, selector) {
		var children = node.querySelectorAll(selector);
		if (children.length) return children[0];
	}
	function find_group(node) {
		var parent = node.parentElement;
		if (!parent) return;
		if (parent.id == "frames") return node;
		return find_group(parent);
	}
	function orig_save(e, attr, val) {
		if (e.attributes["_orig_" + attr] != undefined) return;
		if (e.attributes[attr] == undefined) return;
		if (val == undefined) val = e.attributes[attr].value;
		e.setAttribute("_orig_" + attr, val);
	}
	function orig_load(e, attr) {
		if (e.attributes["_orig_"+attr] == undefined) return;
		e.attributes[attr].value = e.attributes["_orig_" + attr].value;
		e.removeAttribute("_orig_"+attr);
	}
	function g_to_text(e) {
		var text = find_child(e, "title").firstChild.nodeValue;
		return (text)
	}
	function g_to_func(e) {
		var func = g_to_text(e);
		// if there's any manipulation we want to do to the function
		// name before it's searched, do it here before returning.
		return (func);
	}
	function update_text(e) {
		var r = find_child(e, "rect");
		var t = find_child(e, "text");
		var w = parseFloat(r.attributes.width.value) -3;
		var txt = find_child(e, "title").textContent.replace(/\([^(]*\)$/,"");
		t.attributes.x.value = parseFloat(r.attributes.x.value) + 3;

		// Smaller than this size won't fit anything
		if (w < 2 * 12 * 0.59) {
			t.textContent = "";
			return;
		}

		t.textContent = txt;
		var sl = t.getSubStringLength(0, txt.length);
		// check if only whitespace or if we can fit the entire string into width w
		if (/^ *$/.test(txt) || sl < w)
			return;

		// this isn't perfect, but gives a good starting point
		// and avoids calling getSubStringLength too often
		var start = Math.floor((w/sl) * txt.length);
		for (var x = start; x > 0; x = x-2) {
			if (t.getSubStringLength(0, x + 2) <= w) {
				t.textContent = txt.substring(0, x) + "..";
				return;
			}
		}
		t.textContent = "";
	}

	// zoom
	function zoom_reset(e) {
		if (e.attributes != undefined) {
			orig_load(e, "x");
			orig_load(e, "width");
		}
		if (e.childNodes == undefined) return;
		for (var i = 0, c = e.childNodes; i < c.length; i++) {
			zoom_reset(c[i]);
		}
	}
	function zoom_child(e, x, ratio) {
		if (e.attributes != undefined) {
			if (e.attributes.x != undefined) {
				orig_save(e, "x");
				e.attributes.x.value = (parseFloat(e.attributes.x.value) - x - 10) * ratio + 10;
				if (e.tagName == "text")
					e.attributes.x.value = find_child(e.parentNode, "rect[x]").attributes.x.value + 3;
			}
			if (e.attributes.width != undefined) {
				orig_save(e, "width");
				e.attributes.width.value = parseFloat(e.attributes.width.value) * ratio;
			}
		}

		if (e.childNodes == undefined) return;
		for (var i = 0, c = e.childNodes; i < c.length; i++) {
			zoom_child(c[i], x - 10, ratio);
		}
	}
	function zoom_parent(e) {
		if (e.attributes) {
			if (e.attributes.x != undefined) {
				orig_save(e, "x");
				e.attributes.x.value = 10;
			}
			if (e.attributes.width != undefined) {
				orig_save(e, "width");
				e.attributes.width.value = parseInt(svg.width.baseVal.value) - (10 * 2);
			}
		}
		if (e.childNodes == undefined) return;
		for (var i = 0, c = e.childNodes; i < c.length; i++) {
			zoom_parent(c[i]);
		}
	}
	function zoom(node) {
		var attr = find_child(node, "rect").attributes;
		var width = parseFloat(attr.width.value);
		var xmin = parseFloat(attr.x.value);
		var xmax = parseFloat(xmin + width);
		var ymin = parseFloat(attr.y.value);
		var ratio = (svg.width.baseVal.value - 2 * 10) / width;

		// XXX: Workaround for JavaScript float issues (fix me)
		var fudge = 0.0001;

		unzoombtn.classList.remove("hide");

		var el = document.getElementById("frames").children;
		for (var i = 0; i < el.length; i++) {
			var e = el[i];
			var a = find_child(e, "rect").attributes;
			var ex = parseFloat(a.x.value);
			var ew = parseFloat(a.width.value);
			var upstack;
			// Is it an ancestor
			if (0 == 0) {
				upstack = parseFloat(a.y.value) > ymin;
			} else {
				upstack = parseFloat(a.y.value) < ymin;
			}
			if (upstack) {
				// Direct ancestor
				if (ex <= xmin && (ex+ew+fudge) >= xmax) {
					e.classList.add("parent");
					zoom_parent(e);
					update_text(e);
				}
				// not in current path
				else
					e.classList.add("hide");
			}
			// Children maybe
			else {
				// no common path
				if (ex < xmin || ex + fudge >= xmax) {
					e.classList.add("hide");
				}
				else {
					zoom_child(e, xmin, ratio);
					update_text(e);
				}
			}
		}
		search();
	}
	function unzoom(dont_update_text) {
		unzoombtn.classList.add("hide");
		var el = document.getElementById("frames").children;
		for(var i = 0; i < el.length; i++) {
			el[i].classList.remove("parent");
			el[i].classList.remove("hide");
			zoom_reset(el[i]);
			if(!dont_update_text) update_text(el[i]);
		}
		search();
	}
	function clearzoom() {
		unzoom();

		// remove zoom state
		var params = get_params();
		if (params.x) delete params.x;
		if (params.y) delete params.y;
		history.replaceState(null, null, parse_params(params));
	}

	// search
	function toggle_ignorecase() {
		ignorecase = !ignorecase;
		if (ignorecase) {
			ignorecaseBtn.classList.add("show");
		} else {
			ignorecaseBtn.classList.remove("show");
		}
		reset_search();
		search();
	}
	function reset_search() {
		var el = document.querySelectorAll("#frames rect");
		for (var i = 0; i < el.length; i++) {
			orig_load(el[i], "fill")
		}
		var params = get_params();
		delete params.s;
		history.replaceState(null, null, parse_params(params));
	}
	function search_prompt() {
		if (!searching) {
			var term = prompt("Enter a search term (regexp " +
			    "allowed, eg: ^ext4_)"
			    + (ignorecase ? ", ignoring case" : "")
			    + "\nPress Ctrl-i to toggle case sensitivity", "");
			if (term != null) search(term);
		} else {
			reset_search();
			searching = 0;
			currentSearchTerm = null;
			searchbtn.classList.remove("show");
			searchbtn.firstChild.nodeValue = "Search"
			matchedtxt.classList.add("hide");
			matchedtxt.firstChild.nodeValue = ""
		}
	}
	function search(term) {
		if (term) currentSearchTerm = term;
		if (currentSearchTerm === null) return;

		var re = new RegExp(currentSearchTerm, ignorecase ? 'i' : '');
		var el = document.getElementById("frames").children;
		var matches = new Object();
		var maxwidth = 0;
		for (var i = 0; i < el.length; i++) {
			var e = el[i];
			var func = g_to_func(e);
			var rect = find_child(e, "rect");
			if (func == null || rect == null)
				continue;

			// Save max width. Only works as we have a root frame
			var w = parseFloat(rect.attributes.width.value);
			if (w > maxwidth)
				maxwidth = w;

			if (func.match(re)) {
				// highlight
				var x = parseFloat(rect.attributes.x.value);
				orig_save(rect, "fill");
				rect.attributes.fill.value = "rgb(230,0,230)";

				// remember matches
				if (matches[x] == undefined) {
					matches[x] = w;
				} else {
					if (w > matches[x]) {
						// overwrite with parent
						matches[x] = w;
					}
				}
				searching = 1;
			}
		}
		if (!searching)
			return;
		var params = get_params();
		params.s = currentSearchTerm;
		history.replaceState(null, null, parse_params(params));

		searchbtn.classList.add("show");
		searchbtn.firstChild.nodeValue = "Reset Search";

		// calculate percent matched, excluding vertical overlap
		var count = 0;
		var lastx = -1;
		var lastw = 0;
		var keys = Array();
		for (k in matches) {
			if (matches.hasOwnProperty(k))
				keys.push(k);
		}
		// sort the matched frames by their x location
		// ascending, then width descending
		keys.sort(function(a, b){
			return a - b;
		});
		// Step through frames saving only the biggest bottom-up frames
		// thanks to the sort order. This relies on the tree property
		// where children are always smaller than their parents.
		var fudge = 0.0001;	// JavaScript floating point
		for (var k in keys) {
			var x = parseFloat(keys[k]);
			var w = matches[keys[k]];
			if (x >= lastx + lastw - fudge) {
				count += w;
				lastx = x;
				lastw = w;
			}
		}
		// display matched percent
		matchedtxt.classList.remove("hide");
		var pct = 100 * count / maxwidth;
		if (pct != 100) pct = pct.toFixed(1)
		matchedtxt.firstChild.nodeValue = "Matched: " + pct + "%";
	}
]]>
</script>
<rect x="0.0" y="0" width="2400.0" height="1174.0" fill="url(#background)"  />
<text id="title" x="1200.00" y="24" >Flame Graph</text>
<text id="details" x="10.00" y="1157" > </text>
<text id="unzoom" x="10.00" y="24" class="hide">Reset Zoom</text>
<text id="search" x="2290.00" y="24" >Search</text>
<text id="ignorecase" x="2374.00" y="24" >ic</text>
<text id="matched" x="2290.00" y="1157" > </text>
<g id="frames">
<g >
<title>Plane::getIntersection (483,341,278 samples, 8.51%)</title><rect x="374.5" y="805" width="202.7" height="47.0" fill="rgb(232,126,30)" rx="2" ry="2" />
<text  x="377.54" y="831.5" >Plane::getIntersection</text>
</g>
<g >
<title>do_syscall_64 (296,830 samples, 0.01%)</title><rect x="10.0" y="469" width="0.1" height="47.0" fill="rgb(209,20,4)" rx="2" ry="2" />
<text  x="13.00" y="495.5" ></text>
</g>
<g >
<title>Box::getIntersection (93,279,460 samples, 1.64%)</title><rect x="1395.3" y="757" width="39.1" height="47.0" fill="rgb(217,59,14)" rx="2" ry="2" />
<text  x="1398.27" y="783.5" >Box..</text>
</g>
<g >
<title>schedule (47,166,990 samples, 0.83%)</title><rect x="857.3" y="661" width="19.8" height="47.0" fill="rgb(254,229,54)" rx="2" ry="2" />
<text  x="860.32" y="687.5" ></text>
</g>
<g >
<title>[unknown]  (47,009,285 samples, 0.83%)</title><rect x="2370.3" y="901" width="19.7" height="47.0" fill="rgb(253,223,53)" rx="2" ry="2" />
<text  x="2373.29" y="927.5" ></text>
</g>
<g >
<title>pick_next_task (47,166,990 samples, 0.83%)</title><rect x="857.3" y="565" width="19.8" height="47.0" fill="rgb(206,4,1)" rx="2" ry="2" />
<text  x="860.32" y="591.5" ></text>
</g>
<g >
<title>main (47,009,285 samples, 0.83%)</title><rect x="2370.3" y="997" width="19.7" height="47.0" fill="rgb(243,179,42)" rx="2" ry="2" />
<text  x="2373.29" y="1023.5" ></text>
</g>
<g >
<title>Vector::operator* (46,515,555 samples, 0.82%)</title><rect x="676.4" y="805" width="19.5" height="47.0" fill="rgb(233,131,31)" rx="2" ry="2" />
<text  x="679.43" y="831.5" ></text>
</g>
<g >
<title>getLight (715,566,943 samples, 12.60%)</title><rect x="1452.8" y="805" width="300.0" height="47.0" fill="rgb(240,163,39)" rx="2" ry="2" />
<text  x="1455.79" y="831.5" >getLight</text>
</g>
<g >
<title>x64_sys_call (47,009,285 samples, 0.83%)</title><rect x="2370.3" y="661" width="19.7" height="47.0" fill="rgb(247,194,46)" rx="2" ry="2" />
<text  x="2373.29" y="687.5" ></text>
</g>
<g >
<title>[unknown]  (296,830 samples, 0.01%)</title><rect x="10.0" y="565" width="0.1" height="47.0" fill="rgb(253,223,53)" rx="2" ry="2" />
<text  x="13.00" y="591.5" ></text>
</g>
<g >
<title>backing_file_mmap (296,830 samples, 0.01%)</title><rect x="10.0" y="85" width="0.1" height="47.0" fill="rgb(245,187,44)" rx="2" ry="2" />
<text  x="13.00" y="111.5" ></text>
</g>
<g >
<title>Vector::operator- (91,998,484 samples, 1.62%)</title><rect x="1572.6" y="709" width="38.5" height="47.0" fill="rgb(214,42,10)" rx="2" ry="2" />
<text  x="1575.55" y="735.5" >Vec..</text>
</g>
<g >
<title>delete_from_page_cache_batch (47,009,285 samples, 0.83%)</title><rect x="2370.3" y="133" width="19.7" height="47.0" fill="rgb(223,85,20)" rx="2" ry="2" />
<text  x="2373.29" y="159.5" ></text>
</g>
<g >
<title>calcColor (5,538,876,191 samples, 97.57%)</title><rect x="47.8" y="901" width="2322.1" height="47.0" fill="rgb(209,19,4)" rx="2" ry="2" />
<text  x="50.84" y="927.5" >calcColor</text>
</g>
<g >
<title>Vector::Vector (46,013,351 samples, 0.81%)</title><rect x="2184.7" y="757" width="19.3" height="47.0" fill="rgb(213,39,9)" rx="2" ry="2" />
<text  x="2187.68" y="783.5" ></text>
</g>
<g >
<title>Sphere::getIntersection (48,886,103 samples, 0.86%)</title><rect x="734.5" y="853" width="20.5" height="47.0" fill="rgb(213,39,9)" rx="2" ry="2" />
<text  x="737.54" y="879.5" ></text>
</g>
<g >
<title>solveScalers (47,600,852 samples, 0.84%)</title><rect x="1296.2" y="757" width="20.0" height="47.0" fill="rgb(209,20,4)" rx="2" ry="2" />
<text  x="1299.24" y="783.5" ></text>
</g>
<g >
<title>truncate_inode_pages_range (47,009,285 samples, 0.83%)</title><rect x="2370.3" y="181" width="19.7" height="47.0" fill="rgb(245,187,44)" rx="2" ry="2" />
<text  x="2373.29" y="207.5" ></text>
</g>
<g >
<title>Box::getLightIntersection (426,441,853 samples, 7.51%)</title><rect x="1473.3" y="757" width="178.8" height="47.0" fill="rgb(212,32,7)" rx="2" ry="2" />
<text  x="1476.32" y="783.5" >Box::getLightIntersection</text>
</g>
<g >
<title>solveScalers (95,270,015 samples, 1.68%)</title><rect x="1965.8" y="757" width="40.0" height="47.0" fill="rgb(209,20,4)" rx="2" ry="2" />
<text  x="1968.85" y="783.5" >sol..</text>
</g>
<g >
<title>[unknown]  (296,830 samples, 0.01%)</title><rect x="10.0" y="901" width="0.1" height="47.0" fill="rgb(253,223,53)" rx="2" ry="2" />
<text  x="13.00" y="927.5" ></text>
</g>
<g >
<title>Vector::operator* (240,427,852 samples, 4.24%)</title><rect x="1073.0" y="757" width="100.8" height="47.0" fill="rgb(233,131,31)" rx="2" ry="2" />
<text  x="1075.98" y="783.5" >Vector::oper..</text>
</g>
<g >
<title>notify_change (47,009,285 samples, 0.83%)</title><rect x="2370.3" y="325" width="19.7" height="47.0" fill="rgb(237,150,35)" rx="2" ry="2" />
<text  x="2373.29" y="351.5" ></text>
</g>
<g >
<title>operator* (298,362,938 samples, 5.26%)</title><rect x="2244.9" y="853" width="125.0" height="47.0" fill="rgb(233,130,31)" rx="2" ry="2" />
<text  x="2247.86" y="879.5" >operator*</text>
</g>
<g >
<title>all (5,676,971,388 samples, 100%)</title><rect x="10.0" y="1093" width="2380.0" height="47.0" fill="rgb(213,39,9)" rx="2" ry="2" />
<text  x="13.00" y="1119.5" ></text>
</g>
<g >
<title>Vector::operator- (97,552,480 samples, 1.72%)</title><rect x="1925.0" y="757" width="40.8" height="47.0" fill="rgb(214,42,10)" rx="2" ry="2" />
<text  x="1927.95" y="783.5" >Vec..</text>
</g>
<g >
<title>entry_SYSCALL_64_after_hwframe (47,009,285 samples, 0.83%)</title><rect x="2370.3" y="757" width="19.7" height="47.0" fill="rgb(218,63,15)" rx="2" ry="2" />
<text  x="2373.29" y="783.5" ></text>
</g>
<g >
<title>malloc@plt (826,707 samples, 0.01%)</title><rect x="2369.9" y="901" width="0.4" height="47.0" fill="rgb(246,192,46)" rx="2" ry="2" />
<text  x="2372.94" y="927.5" ></text>
</g>
<g >
<title>Ray::Ray (97,953,423 samples, 1.73%)</title><rect x="2066.8" y="805" width="41.1" height="47.0" fill="rgb(238,153,36)" rx="2" ry="2" />
<text  x="2069.84" y="831.5" >Ray..</text>
</g>
<g >
<title>filemap_unaccount_folio (47,009,285 samples, 0.83%)</title><rect x="2370.3" y="85" width="19.7" height="47.0" fill="rgb(220,72,17)" rx="2" ry="2" />
<text  x="2373.29" y="111.5" ></text>
</g>
<g >
<title>common_interrupt (47,166,990 samples, 0.83%)</title><rect x="857.3" y="805" width="19.8" height="47.0" fill="rgb(215,46,11)" rx="2" ry="2" />
<text  x="860.32" y="831.5" ></text>
</g>
<g >
<title>[unknown]  (296,830 samples, 0.01%)</title><rect x="10.0" y="709" width="0.1" height="47.0" fill="rgb(253,223,53)" rx="2" ry="2" />
<text  x="13.00" y="735.5" ></text>
</g>
<g >
<title>[unknown]  (45,217,404 samples, 0.80%)</title><rect x="1316.2" y="805" width="19.0" height="47.0" fill="rgb(253,223,53)" rx="2" ry="2" />
<text  x="1319.20" y="831.5" ></text>
</g>
<g >
<title>irqentry_exit_to_user_mode (47,166,990 samples, 0.83%)</title><rect x="857.3" y="709" width="19.8" height="47.0" fill="rgb(254,229,54)" rx="2" ry="2" />
<text  x="860.32" y="735.5" ></text>
</g>
<g >
<title>Vector::dot (97,684,006 samples, 1.72%)</title><rect x="1512.9" y="709" width="40.9" height="47.0" fill="rgb(251,213,51)" rx="2" ry="2" />
<text  x="1515.88" y="735.5" >Vec..</text>
</g>
<g >
<title>do_truncate (47,009,285 samples, 0.83%)</title><rect x="2370.3" y="373" width="19.7" height="47.0" fill="rgb(216,53,12)" rx="2" ry="2" />
<text  x="2373.29" y="399.5" ></text>
</g>
<g >
<title>calcColor (280,604,094 samples, 4.94%)</title><rect x="1335.2" y="805" width="117.6" height="47.0" fill="rgb(209,19,4)" rx="2" ry="2" />
<text  x="1338.15" y="831.5" >calcColor</text>
</g>
<g >
<title>entry_SYSCALL_64_after_hwframe (296,830 samples, 0.01%)</title><rect x="10.0" y="517" width="0.1" height="47.0" fill="rgb(218,63,15)" rx="2" ry="2" />
<text  x="13.00" y="543.5" ></text>
</g>
<g >
<title>Vector::operator+ (48,809,380 samples, 0.86%)</title><rect x="1173.8" y="757" width="20.4" height="47.0" fill="rgb(227,102,24)" rx="2" ry="2" />
<text  x="1176.77" y="783.5" ></text>
</g>
<g >
<title>Vector::Vector (144,858,383 samples, 2.55%)</title><rect x="1113.0" y="709" width="60.8" height="47.0" fill="rgb(213,39,9)" rx="2" ry="2" />
<text  x="1116.04" y="735.5" >Vector..</text>
</g>
<g >
<title>Vector::Vector (46,515,555 samples, 0.82%)</title><rect x="676.4" y="757" width="19.5" height="47.0" fill="rgb(213,39,9)" rx="2" ry="2" />
<text  x="679.43" y="783.5" ></text>
</g>
<g >
<title>truncate_pagecache (47,009,285 samples, 0.83%)</title><rect x="2370.3" y="229" width="19.7" height="47.0" fill="rgb(231,123,29)" rx="2" ry="2" />
<text  x="2373.29" y="255.5" ></text>
</g>
<g >
<title>do_syscall_64 (47,009,285 samples, 0.83%)</title><rect x="2370.3" y="709" width="19.7" height="47.0" fill="rgb(209,20,4)" rx="2" ry="2" />
<text  x="2373.29" y="735.5" ></text>
</g>
<g >
<title>Box::getIntersection (727,811,653 samples, 12.82%)</title><rect x="991.1" y="805" width="305.1" height="47.0" fill="rgb(217,59,14)" rx="2" ry="2" />
<text  x="994.11" y="831.5" >Box::getIntersection</text>
</g>
<g >
<title>Vector::Vector (48,882,573 samples, 0.86%)</title><rect x="1631.6" y="661" width="20.5" height="47.0" fill="rgb(213,39,9)" rx="2" ry="2" />
<text  x="1634.61" y="687.5" ></text>
</g>
<g >
<title>[unknown]  (296,830 samples, 0.01%)</title><rect x="10.0" y="613" width="0.1" height="47.0" fill="rgb(253,223,53)" rx="2" ry="2" />
<text  x="13.00" y="639.5" ></text>
</g>
<g >
<title>Plane::getColor (47,600,852 samples, 0.84%)</title><rect x="1296.2" y="805" width="20.0" height="47.0" fill="rgb(241,169,40)" rx="2" ry="2" />
<text  x="1299.24" y="831.5" ></text>
</g>
<g >
<title>Plane::getLightIntersection (145,612,314 samples, 2.56%)</title><rect x="2005.8" y="805" width="61.0" height="47.0" fill="rgb(226,99,23)" rx="2" ry="2" />
<text  x="2008.79" y="831.5" >Plane:..</text>
</g>
<g >
<title>Vector::operator* (144,001,931 samples, 2.54%)</title><rect x="2124.3" y="805" width="60.4" height="47.0" fill="rgb(233,131,31)" rx="2" ry="2" />
<text  x="2127.31" y="831.5" >Vector..</text>
</g>
<g >
<title>solveScalers (97,753,750 samples, 1.72%)</title><rect x="1611.1" y="709" width="41.0" height="47.0" fill="rgb(209,20,4)" rx="2" ry="2" />
<text  x="1614.12" y="735.5" >sol..</text>
</g>
<g >
<title>__schedule (47,166,990 samples, 0.83%)</title><rect x="857.3" y="613" width="19.8" height="47.0" fill="rgb(227,103,24)" rx="2" ry="2" />
<text  x="860.32" y="639.5" ></text>
</g>
<g >
<title>x64_sys_call (296,830 samples, 0.01%)</title><rect x="10.0" y="421" width="0.1" height="47.0" fill="rgb(247,194,46)" rx="2" ry="2" />
<text  x="13.00" y="447.5" ></text>
</g>
<g >
<title>getLight (43,930,846 samples, 0.77%)</title><rect x="1434.4" y="757" width="18.4" height="47.0" fill="rgb(240,163,39)" rx="2" ry="2" />
<text  x="1437.38" y="783.5" ></text>
</g>
<g >
<title>[unknown]  (47,009,285 samples, 0.83%)</title><rect x="2370.3" y="853" width="19.7" height="47.0" fill="rgb(253,223,53)" rx="2" ry="2" />
<text  x="2373.29" y="879.5" ></text>
</g>
<g >
<title>pick_next_task_fair (47,166,990 samples, 0.83%)</title><rect x="857.3" y="517" width="19.8" height="47.0" fill="rgb(242,170,40)" rx="2" ry="2" />
<text  x="860.32" y="543.5" ></text>
</g>
<g >
<title>[unknown] (5,629,663,477 samples, 99.17%)</title><rect x="10.1" y="997" width="2360.2" height="47.0" fill="rgb(210,24,5)" rx="2" ry="2" />
<text  x="13.12" y="1023.5" >[unknown]</text>
</g>
<g >
<title>Vector::dot (361,781,669 samples, 6.37%)</title><rect x="1752.8" y="757" width="151.7" height="47.0" fill="rgb(251,213,51)" rx="2" ry="2" />
<text  x="1755.79" y="783.5" >Vector::dot</text>
</g>
<g >
<title>do_sys_openat2 (47,009,285 samples, 0.83%)</title><rect x="2370.3" y="565" width="19.7" height="47.0" fill="rgb(253,221,52)" rx="2" ry="2" />
<text  x="2373.29" y="591.5" ></text>
</g>
<g >
<title>Box::getLightIntersection (603,482,913 samples, 10.63%)</title><rect x="1752.8" y="805" width="253.0" height="47.0" fill="rgb(212,32,7)" rx="2" ry="2" />
<text  x="1755.79" y="831.5" >Box::getLightIntersection</text>
</g>
<g >
<title>Ray::Ray (192,658,728 samples, 3.39%)</title><rect x="1652.1" y="757" width="80.8" height="47.0" fill="rgb(238,153,36)" rx="2" ry="2" />
<text  x="1655.10" y="783.5" >Ray::Ray</text>
</g>
<g >
<title>__x64_sys_openat (47,009,285 samples, 0.83%)</title><rect x="2370.3" y="613" width="19.7" height="47.0" fill="rgb(251,215,51)" rx="2" ry="2" />
<text  x="2373.29" y="639.5" ></text>
</g>
<g >
<title>[unknown]  (296,830 samples, 0.01%)</title><rect x="10.0" y="661" width="0.1" height="47.0" fill="rgb(253,223,53)" rx="2" ry="2" />
<text  x="13.00" y="687.5" ></text>
</g>
<g >
<title>getLight (1,076,192,593 samples, 18.96%)</title><rect x="1752.8" y="853" width="451.2" height="47.0" fill="rgb(240,163,39)" rx="2" ry="2" />
<text  x="1755.79" y="879.5" >getLight</text>
</g>
<g >
<title>path_openat (47,009,285 samples, 0.83%)</title><rect x="2370.3" y="469" width="19.7" height="47.0" fill="rgb(249,202,48)" rx="2" ry="2" />
<text  x="2373.29" y="495.5" ></text>
</g>
<g >
<title>[unknown]  (296,830 samples, 0.01%)</title><rect x="10.0" y="853" width="0.1" height="47.0" fill="rgb(253,223,53)" rx="2" ry="2" />
<text  x="13.00" y="879.5" ></text>
</g>
<g >
<title>do_filp_open (47,009,285 samples, 0.83%)</title><rect x="2370.3" y="517" width="19.7" height="47.0" fill="rgb(211,28,6)" rx="2" ry="2" />
<text  x="2373.29" y="543.5" ></text>
</g>
<g >
<title>Vector::operator- (97,667,027 samples, 1.72%)</title><rect x="1194.2" y="757" width="41.0" height="47.0" fill="rgb(214,42,10)" rx="2" ry="2" />
<text  x="1197.24" y="783.5" >Vec..</text>
</g>
<g >
<title>Plane::getIntersection (92,083,328 samples, 1.62%)</title><rect x="695.9" y="853" width="38.6" height="47.0" fill="rgb(232,126,30)" rx="2" ry="2" />
<text  x="698.93" y="879.5" >Pla..</text>
</g>
<g >
<title>Vector::dot (96,982,722 samples, 1.71%)</title><rect x="536.5" y="757" width="40.7" height="47.0" fill="rgb(251,213,51)" rx="2" ry="2" />
<text  x="539.52" y="783.5" >Vec..</text>
</g>
<g >
<title>__lruvec_stat_mod_folio (47,009,285 samples, 0.83%)</title><rect x="2370.3" y="37" width="19.7" height="47.0" fill="rgb(246,191,45)" rx="2" ry="2" />
<text  x="2373.29" y="63.5" ></text>
</g>
<g >
<title>Vector::Vector (44,662,542 samples, 0.79%)</title><rect x="1553.8" y="661" width="18.8" height="47.0" fill="rgb(213,39,9)" rx="2" ry="2" />
<text  x="1556.83" y="687.5" ></text>
</g>
<g >
<title>Vector::dot (51,016,140 samples, 0.90%)</title><rect x="1051.6" y="709" width="21.4" height="47.0" fill="rgb(251,213,51)" rx="2" ry="2" />
<text  x="1054.59" y="735.5" >V..</text>
</g>
<g >
<title>Vector::operator* (43,930,846 samples, 0.77%)</title><rect x="1434.4" y="709" width="18.4" height="47.0" fill="rgb(233,131,31)" rx="2" ry="2" />
<text  x="1437.38" y="735.5" ></text>
</g>
<g >
<title>Vector::Vector (39,128,661 samples, 0.69%)</title><rect x="2107.9" y="805" width="16.4" height="47.0" fill="rgb(213,39,9)" rx="2" ry="2" />
<text  x="2110.90" y="831.5" ></text>
</g>
<g >
<title>do_open (47,009,285 samples, 0.83%)</title><rect x="2370.3" y="421" width="19.7" height="47.0" fill="rgb(233,129,31)" rx="2" ry="2" />
<text  x="2373.29" y="447.5" ></text>
</g>
<g >
<title>ext4_setattr (47,009,285 samples, 0.83%)</title><rect x="2370.3" y="277" width="19.7" height="47.0" fill="rgb(230,117,28)" rx="2" ry="2" />
<text  x="2373.29" y="303.5" ></text>
</g>
<g >
<title>[unknown]  (243,991,738 samples, 4.30%)</title><rect x="755.0" y="853" width="102.3" height="47.0" fill="rgb(253,223,53)" rx="2" ry="2" />
<text  x="758.03" y="879.5" >[unknown] </text>
</g>
<g >
<title>Vector::operator+ (49,362,629 samples, 0.87%)</title><rect x="577.2" y="805" width="20.7" height="47.0" fill="rgb(227,102,24)" rx="2" ry="2" />
<text  x="580.17" y="831.5" ></text>
</g>
<g >
<title>Vector::Vector (91,998,484 samples, 1.62%)</title><rect x="1572.6" y="661" width="38.5" height="47.0" fill="rgb(213,39,9)" rx="2" ry="2" />
<text  x="1575.55" y="687.5" >Vec..</text>
</g>
<g >
<title>Vector::operator- (48,603,162 samples, 0.86%)</title><rect x="597.9" y="805" width="20.3" height="47.0" fill="rgb(214,42,10)" rx="2" ry="2" />
<text  x="600.87" y="831.5" ></text>
</g>
<g >
<title>__x64_sys_mmap (296,830 samples, 0.01%)</title><rect x="10.0" y="373" width="0.1" height="47.0" fill="rgb(223,83,19)" rx="2" ry="2" />
<text  x="13.00" y="399.5" ></text>
</g>
<g >
<title>main.exe (5,676,969,592 samples, 100.00%)</title><rect x="10.0" y="1045" width="2380.0" height="47.0" fill="rgb(216,53,12)" rx="2" ry="2" />
<text  x="13.00" y="1071.5" >main.exe</text>
</g>
<g >
<title>Plane::getIntersection (48,408,568 samples, 0.85%)</title><rect x="1414.1" y="709" width="20.3" height="47.0" fill="rgb(232,126,30)" rx="2" ry="2" />
<text  x="1417.08" y="735.5" ></text>
</g>
<g >
<title>Vector::dot (145,612,314 samples, 2.56%)</title><rect x="2005.8" y="757" width="61.0" height="47.0" fill="rgb(251,213,51)" rx="2" ry="2" />
<text  x="2008.79" y="783.5" >Vector..</text>
</g>
<g >
<title>Plane::getIntersection (147,478,237 samples, 2.60%)</title><rect x="1011.1" y="757" width="61.9" height="47.0" fill="rgb(232,126,30)" rx="2" ry="2" />
<text  x="1014.15" y="783.5" >Plane:..</text>
</g>
<g >
<title>ksys_mmap_pgoff (296,830 samples, 0.01%)</title><rect x="10.0" y="325" width="0.1" height="47.0" fill="rgb(245,185,44)" rx="2" ry="2" />
<text  x="13.00" y="351.5" ></text>
</g>
<g >
<title>irqentry_exit (47,166,990 samples, 0.83%)</title><rect x="857.3" y="757" width="19.8" height="47.0" fill="rgb(219,66,15)" rx="2" ry="2" />
<text  x="860.32" y="783.5" ></text>
</g>
<g >
<title>asm_common_interrupt (47,166,990 samples, 0.83%)</title><rect x="857.3" y="853" width="19.8" height="47.0" fill="rgb(227,105,25)" rx="2" ry="2" />
<text  x="860.32" y="879.5" ></text>
</g>
<g >
<title>malloc@plt (48,846,405 samples, 0.86%)</title><rect x="2224.4" y="853" width="20.5" height="47.0" fill="rgb(246,192,46)" rx="2" ry="2" />
<text  x="2227.38" y="879.5" ></text>
</g>
<g >
<title>insertionSort (48,695,106 samples, 0.86%)</title><rect x="2204.0" y="853" width="20.4" height="47.0" fill="rgb(248,200,48)" rx="2" ry="2" />
<text  x="2206.97" y="879.5" ></text>
</g>
<g >
<title>[unknown]  (47,009,285 samples, 0.83%)</title><rect x="2370.3" y="949" width="19.7" height="47.0" fill="rgb(253,223,53)" rx="2" ry="2" />
<text  x="2373.29" y="975.5" ></text>
</g>
<g >
<title>refresh (5,629,663,477 samples, 99.17%)</title><rect x="10.1" y="949" width="2360.2" height="47.0" fill="rgb(212,32,7)" rx="2" ry="2" />
<text  x="13.12" y="975.5" >refresh</text>
</g>
<g >
<title>[unknown]  (47,009,285 samples, 0.83%)</title><rect x="2370.3" y="805" width="19.7" height="47.0" fill="rgb(253,223,53)" rx="2" ry="2" />
<text  x="2373.29" y="831.5" ></text>
</g>
<g >
<title>Box::getIntersection (805,368,754 samples, 14.19%)</title><rect x="338.8" y="853" width="337.6" height="47.0" fill="rgb(217,59,14)" rx="2" ry="2" />
<text  x="341.79" y="879.5" >Box::getIntersection</text>
</g>
<g >
<title>ovl_mmap (296,830 samples, 0.01%)</title><rect x="10.0" y="133" width="0.1" height="47.0" fill="rgb(214,43,10)" rx="2" ry="2" />
<text  x="13.00" y="159.5" ></text>
</g>
<g >
<title>Vector::Vector (97,552,480 samples, 1.72%)</title><rect x="1925.0" y="709" width="40.8" height="47.0" fill="rgb(213,39,9)" rx="2" ry="2" />
<text  x="1927.95" y="735.5" >Vec..</text>
</g>
<g >
<title>vm_mmap_pgoff (296,830 samples, 0.01%)</title><rect x="10.0" y="277" width="0.1" height="47.0" fill="rgb(237,150,35)" rx="2" ry="2" />
<text  x="13.00" y="303.5" ></text>
</g>
<g >
<title>Vector::dot (43,379,299 samples, 0.76%)</title><rect x="716.4" y="805" width="18.1" height="47.0" fill="rgb(251,213,51)" rx="2" ry="2" />
<text  x="719.35" y="831.5" ></text>
</g>
<g >
<title>do_mmap (296,830 samples, 0.01%)</title><rect x="10.0" y="229" width="0.1" height="47.0" fill="rgb(228,107,25)" rx="2" ry="2" />
<text  x="13.00" y="255.5" ></text>
</g>
<g >
<title>solveScalers (145,641,385 samples, 2.57%)</title><rect x="1235.2" y="757" width="61.0" height="47.0" fill="rgb(209,20,4)" rx="2" ry="2" />
<text  x="1238.18" y="783.5" >solveS..</text>
</g>
<g >
<title>Vector::Vector (49,362,629 samples, 0.87%)</title><rect x="577.2" y="757" width="20.7" height="47.0" fill="rgb(213,39,9)" rx="2" ry="2" />
<text  x="580.17" y="783.5" ></text>
</g>
<g >
<title>Disk::getIntersection (46,515,555 samples, 0.82%)</title><rect x="676.4" y="853" width="19.5" height="47.0" fill="rgb(234,137,32)" rx="2" ry="2" />
<text  x="679.43" y="879.5" ></text>
</g>
<g >
<title>Vector::Vector (95,267,520 samples, 1.68%)</title><rect x="1965.8" y="709" width="40.0" height="47.0" fill="rgb(213,39,9)" rx="2" ry="2" />
<text  x="1968.85" y="735.5" >Vec..</text>
</g>
<g >
<title>[unknown]  (296,830 samples, 0.01%)</title><rect x="10.0" y="997" width="0.1" height="47.0" fill="rgb(253,223,53)" rx="2" ry="2" />
<text  x="13.00" y="1023.5" ></text>
</g>
<g >
<title>calcColor (2,088,767,114 samples, 36.79%)</title><rect x="877.1" y="853" width="875.7" height="47.0" fill="rgb(209,19,4)" rx="2" ry="2" />
<text  x="880.10" y="879.5" >calcColor</text>
</g>
<g >
<title>solveScalers (138,788,095 samples, 2.44%)</title><rect x="618.2" y="805" width="58.2" height="47.0" fill="rgb(209,20,4)" rx="2" ry="2" />
<text  x="621.25" y="831.5" >solveS..</text>
</g>
<g >
<title>mmap_region (296,830 samples, 0.01%)</title><rect x="10.0" y="181" width="0.1" height="47.0" fill="rgb(231,121,28)" rx="2" ry="2" />
<text  x="13.00" y="207.5" ></text>
</g>
<g >
<title>[unknown]  (146,252,568 samples, 2.58%)</title><rect x="796.0" y="805" width="61.3" height="47.0" fill="rgb(253,223,53)" rx="2" ry="2" />
<text  x="799.01" y="831.5" >[unkno..</text>
</g>
<g >
<title>Vector::operator* (44,662,542 samples, 0.79%)</title><rect x="1553.8" y="709" width="18.8" height="47.0" fill="rgb(233,131,31)" rx="2" ry="2" />
<text  x="1556.83" y="735.5" ></text>
</g>
<g >
<title>[unknown]  (296,830 samples, 0.01%)</title><rect x="10.0" y="757" width="0.1" height="47.0" fill="rgb(253,223,53)" rx="2" ry="2" />
<text  x="13.00" y="783.5" ></text>
</g>
<g >
<title>Vector::operator- (46,013,351 samples, 0.81%)</title><rect x="2184.7" y="805" width="19.3" height="47.0" fill="rgb(214,42,10)" rx="2" ry="2" />
<text  x="2187.68" y="831.5" ></text>
</g>
<g >
<title>Vector::operator* (47,495,662 samples, 0.84%)</title><rect x="1732.9" y="757" width="19.9" height="47.0" fill="rgb(233,131,31)" rx="2" ry="2" />
<text  x="1735.87" y="783.5" ></text>
</g>
<g >
<title>[unknown]  (296,830 samples, 0.01%)</title><rect x="10.0" y="949" width="0.1" height="47.0" fill="rgb(253,223,53)" rx="2" ry="2" />
<text  x="13.00" y="975.5" ></text>
</g>
<g >
<title>Vector::operator* (48,878,749 samples, 0.86%)</title><rect x="1904.5" y="757" width="20.5" height="47.0" fill="rgb(233,131,31)" rx="2" ry="2" />
<text  x="1907.46" y="783.5" ></text>
</g>
<g >
<title>[unknown]  (296,830 samples, 0.01%)</title><rect x="10.0" y="805" width="0.1" height="47.0" fill="rgb(253,223,53)" rx="2" ry="2" />
<text  x="13.00" y="831.5" ></text>
</g>
</g>
</svg>
