<?xml version="1.0" standalone="no"?>
<!DOCTYPE svg PUBLIC "-//W3C//DTD SVG 1.1//EN" "http://www.w3.org/Graphics/SVG/1.1/DTD/svg11.dtd">
<svg version="1.1" width="2400" height="2182" onload="init(evt)" viewBox="0 0 2400 2182" xmlns="http://www.w3.org/2000/svg" xmlns:xlink="http://www.w3.org/1999/xlink">
<!-- Flame graph stack visualization. See https://github.com/brendangregg/FlameGraph for latest version, and http://www.brendangregg.com/flamegraphs.html for examples. -->
<!-- NOTES:  -->
<defs>
	<linearGradient id="background" y1="0" y2="1" x1="0" x2="0" >
		<stop stop-color="#eeeeee" offset="5%" />
		<stop stop-color="#eeeeb0" offset="95%" />
	</linearGradient>
</defs>
<style type="text/css">
	text { font-family:Verdana; font-size:12px; fill:rgb(0,0,0); }
	#search, #ignorecase { opacity:0.1; cursor:pointer; }
	#search:hover, #search.show, #ignorecase:hover, #ignorecase.show { opacity:1; }
	#subtitle { text-anchor:middle; font-color:rgb(160,160,160); }
	#title { text-anchor:middle; font-size:17px}
	#unzoom { cursor:pointer; }
	#frames > *:hover { stroke:black; stroke-width:0.5; cursor:pointer; }
	.hide { display:none; }
	.parent { opacity:0.5; }
</style>
<script type="text/ecmascript">
<![CDATA[
	"use strict";
	var details, searchbtn, unzoombtn, matchedtxt, svg, searching, currentSearchTerm, ignorecase, ignorecaseBtn;
	function init(evt) {
		details = document.getElementById("details").firstChild;
		searchbtn = document.getElementById("search");
		ignorecaseBtn = document.getElementById("ignorecase");
		unzoombtn = document.getElementById("unzoom");
		matchedtxt = document.getElementById("matched");
		svg = document.getElementsByTagName("svg")[0];
		searching = 0;
		currentSearchTerm = null;

		// use GET parameters to restore a flamegraphs state.
		var params = get_params();
		if (params.x && params.y)
			zoom(find_group(document.querySelector('[x="' + params.x + '"][y="' + params.y + '"]')));
                if (params.s) search(params.s);
	}

	// event listeners
	window.addEventListener("click", function(e) {
		var target = find_group(e.target);
		if (target) {
			if (target.nodeName == "a") {
				if (e.ctrlKey === false) return;
				e.preventDefault();
			}
			if (target.classList.contains("parent")) unzoom(true);
			zoom(target);
			if (!document.querySelector('.parent')) {
				// we have basically done a clearzoom so clear the url
				var params = get_params();
				if (params.x) delete params.x;
				if (params.y) delete params.y;
				history.replaceState(null, null, parse_params(params));
				unzoombtn.classList.add("hide");
				return;
			}

			// set parameters for zoom state
			var el = target.querySelector("rect");
			if (el && el.attributes && el.attributes.y && el.attributes._orig_x) {
				var params = get_params()
				params.x = el.attributes._orig_x.value;
				params.y = el.attributes.y.value;
				history.replaceState(null, null, parse_params(params));
			}
		}
		else if (e.target.id == "unzoom") clearzoom();
		else if (e.target.id == "search") search_prompt();
		else if (e.target.id == "ignorecase") toggle_ignorecase();
	}, false)

	// mouse-over for info
	// show
	window.addEventListener("mouseover", function(e) {
		var target = find_group(e.target);
		if (target) details.nodeValue = "Function: " + g_to_text(target);
	}, false)

	// clear
	window.addEventListener("mouseout", function(e) {
		var target = find_group(e.target);
		if (target) details.nodeValue = ' ';
	}, false)

	// ctrl-F for search
	// ctrl-I to toggle case-sensitive search
	window.addEventListener("keydown",function (e) {
		if (e.keyCode === 114 || (e.ctrlKey && e.keyCode === 70)) {
			e.preventDefault();
			search_prompt();
		}
		else if (e.ctrlKey && e.keyCode === 73) {
			e.preventDefault();
			toggle_ignorecase();
		}
	}, false)

	// functions
	function get_params() {
		var params = {};
		var paramsarr = window.location.search.substr(1).split('&');
		for (var i = 0; i < paramsarr.length; ++i) {
			var tmp = paramsarr[i].split("=");
			if (!tmp[0] || !tmp[1]) continue;
			params[tmp[0]]  = decodeURIComponent(tmp[1]);
		}
		return params;
	}
	function parse_params(params) {
		var uri = "?";
		for (var key in params) {
			uri += key + '=' + encodeURIComponent(params[key]) + '&';
		}
		if (uri.slice(-1) == "&")
			uri = uri.substring(0, uri.length - 1);
		if (uri == '?')
			uri = window.location.href.split('?')[0];
		return uri;
	}
	function find_child(node, selector) {
		var children = node.querySelectorAll(selector);
		if (children.length) return children[0];
	}
	function find_group(node) {
		var parent = node.parentElement;
		if (!parent) return;
		if (parent.id == "frames") return node;
		return find_group(parent);
	}
	function orig_save(e, attr, val) {
		if (e.attributes["_orig_" + attr] != undefined) return;
		if (e.attributes[attr] == undefined) return;
		if (val == undefined) val = e.attributes[attr].value;
		e.setAttribute("_orig_" + attr, val);
	}
	function orig_load(e, attr) {
		if (e.attributes["_orig_"+attr] == undefined) return;
		e.attributes[attr].value = e.attributes["_orig_" + attr].value;
		e.removeAttribute("_orig_"+attr);
	}
	function g_to_text(e) {
		var text = find_child(e, "title").firstChild.nodeValue;
		return (text)
	}
	function g_to_func(e) {
		var func = g_to_text(e);
		// if there's any manipulation we want to do to the function
		// name before it's searched, do it here before returning.
		return (func);
	}
	function update_text(e) {
		var r = find_child(e, "rect");
		var t = find_child(e, "text");
		var w = parseFloat(r.attributes.width.value) -3;
		var txt = find_child(e, "title").textContent.replace(/\([^(]*\)$/,"");
		t.attributes.x.value = parseFloat(r.attributes.x.value) + 3;

		// Smaller than this size won't fit anything
		if (w < 2 * 12 * 0.59) {
			t.textContent = "";
			return;
		}

		t.textContent = txt;
		var sl = t.getSubStringLength(0, txt.length);
		// check if only whitespace or if we can fit the entire string into width w
		if (/^ *$/.test(txt) || sl < w)
			return;

		// this isn't perfect, but gives a good starting point
		// and avoids calling getSubStringLength too often
		var start = Math.floor((w/sl) * txt.length);
		for (var x = start; x > 0; x = x-2) {
			if (t.getSubStringLength(0, x + 2) <= w) {
				t.textContent = txt.substring(0, x) + "..";
				return;
			}
		}
		t.textContent = "";
	}

	// zoom
	function zoom_reset(e) {
		if (e.attributes != undefined) {
			orig_load(e, "x");
			orig_load(e, "width");
		}
		if (e.childNodes == undefined) return;
		for (var i = 0, c = e.childNodes; i < c.length; i++) {
			zoom_reset(c[i]);
		}
	}
	function zoom_child(e, x, ratio) {
		if (e.attributes != undefined) {
			if (e.attributes.x != undefined) {
				orig_save(e, "x");
				e.attributes.x.value = (parseFloat(e.attributes.x.value) - x - 10) * ratio + 10;
				if (e.tagName == "text")
					e.attributes.x.value = find_child(e.parentNode, "rect[x]").attributes.x.value + 3;
			}
			if (e.attributes.width != undefined) {
				orig_save(e, "width");
				e.attributes.width.value = parseFloat(e.attributes.width.value) * ratio;
			}
		}

		if (e.childNodes == undefined) return;
		for (var i = 0, c = e.childNodes; i < c.length; i++) {
			zoom_child(c[i], x - 10, ratio);
		}
	}
	function zoom_parent(e) {
		if (e.attributes) {
			if (e.attributes.x != undefined) {
				orig_save(e, "x");
				e.attributes.x.value = 10;
			}
			if (e.attributes.width != undefined) {
				orig_save(e, "width");
				e.attributes.width.value = parseInt(svg.width.baseVal.value) - (10 * 2);
			}
		}
		if (e.childNodes == undefined) return;
		for (var i = 0, c = e.childNodes; i < c.length; i++) {
			zoom_parent(c[i]);
		}
	}
	function zoom(node) {
		var attr = find_child(node, "rect").attributes;
		var width = parseFloat(attr.width.value);
		var xmin = parseFloat(attr.x.value);
		var xmax = parseFloat(xmin + width);
		var ymin = parseFloat(attr.y.value);
		var ratio = (svg.width.baseVal.value - 2 * 10) / width;

		// XXX: Workaround for JavaScript float issues (fix me)
		var fudge = 0.0001;

		unzoombtn.classList.remove("hide");

		var el = document.getElementById("frames").children;
		for (var i = 0; i < el.length; i++) {
			var e = el[i];
			var a = find_child(e, "rect").attributes;
			var ex = parseFloat(a.x.value);
			var ew = parseFloat(a.width.value);
			var upstack;
			// Is it an ancestor
			if (0 == 0) {
				upstack = parseFloat(a.y.value) > ymin;
			} else {
				upstack = parseFloat(a.y.value) < ymin;
			}
			if (upstack) {
				// Direct ancestor
				if (ex <= xmin && (ex+ew+fudge) >= xmax) {
					e.classList.add("parent");
					zoom_parent(e);
					update_text(e);
				}
				// not in current path
				else
					e.classList.add("hide");
			}
			// Children maybe
			else {
				// no common path
				if (ex < xmin || ex + fudge >= xmax) {
					e.classList.add("hide");
				}
				else {
					zoom_child(e, xmin, ratio);
					update_text(e);
				}
			}
		}
		search();
	}
	function unzoom(dont_update_text) {
		unzoombtn.classList.add("hide");
		var el = document.getElementById("frames").children;
		for(var i = 0; i < el.length; i++) {
			el[i].classList.remove("parent");
			el[i].classList.remove("hide");
			zoom_reset(el[i]);
			if(!dont_update_text) update_text(el[i]);
		}
		search();
	}
	function clearzoom() {
		unzoom();

		// remove zoom state
		var params = get_params();
		if (params.x) delete params.x;
		if (params.y) delete params.y;
		history.replaceState(null, null, parse_params(params));
	}

	// search
	function toggle_ignorecase() {
		ignorecase = !ignorecase;
		if (ignorecase) {
			ignorecaseBtn.classList.add("show");
		} else {
			ignorecaseBtn.classList.remove("show");
		}
		reset_search();
		search();
	}
	function reset_search() {
		var el = document.querySelectorAll("#frames rect");
		for (var i = 0; i < el.length; i++) {
			orig_load(el[i], "fill")
		}
		var params = get_params();
		delete params.s;
		history.replaceState(null, null, parse_params(params));
	}
	function search_prompt() {
		if (!searching) {
			var term = prompt("Enter a search term (regexp " +
			    "allowed, eg: ^ext4_)"
			    + (ignorecase ? ", ignoring case" : "")
			    + "\nPress Ctrl-i to toggle case sensitivity", "");
			if (term != null) search(term);
		} else {
			reset_search();
			searching = 0;
			currentSearchTerm = null;
			searchbtn.classList.remove("show");
			searchbtn.firstChild.nodeValue = "Search"
			matchedtxt.classList.add("hide");
			matchedtxt.firstChild.nodeValue = ""
		}
	}
	function search(term) {
		if (term) currentSearchTerm = term;
		if (currentSearchTerm === null) return;

		var re = new RegExp(currentSearchTerm, ignorecase ? 'i' : '');
		var el = document.getElementById("frames").children;
		var matches = new Object();
		var maxwidth = 0;
		for (var i = 0; i < el.length; i++) {
			var e = el[i];
			var func = g_to_func(e);
			var rect = find_child(e, "rect");
			if (func == null || rect == null)
				continue;

			// Save max width. Only works as we have a root frame
			var w = parseFloat(rect.attributes.width.value);
			if (w > maxwidth)
				maxwidth = w;

			if (func.match(re)) {
				// highlight
				var x = parseFloat(rect.attributes.x.value);
				orig_save(rect, "fill");
				rect.attributes.fill.value = "rgb(230,0,230)";

				// remember matches
				if (matches[x] == undefined) {
					matches[x] = w;
				} else {
					if (w > matches[x]) {
						// overwrite with parent
						matches[x] = w;
					}
				}
				searching = 1;
			}
		}
		if (!searching)
			return;
		var params = get_params();
		params.s = currentSearchTerm;
		history.replaceState(null, null, parse_params(params));

		searchbtn.classList.add("show");
		searchbtn.firstChild.nodeValue = "Reset Search";

		// calculate percent matched, excluding vertical overlap
		var count = 0;
		var lastx = -1;
		var lastw = 0;
		var keys = Array();
		for (k in matches) {
			if (matches.hasOwnProperty(k))
				keys.push(k);
		}
		// sort the matched frames by their x location
		// ascending, then width descending
		keys.sort(function(a, b){
			return a - b;
		});
		// Step through frames saving only the biggest bottom-up frames
		// thanks to the sort order. This relies on the tree property
		// where children are always smaller than their parents.
		var fudge = 0.0001;	// JavaScript floating point
		for (var k in keys) {
			var x = parseFloat(keys[k]);
			var w = matches[keys[k]];
			if (x >= lastx + lastw - fudge) {
				count += w;
				lastx = x;
				lastw = w;
			}
		}
		// display matched percent
		matchedtxt.classList.remove("hide");
		var pct = 100 * count / maxwidth;
		if (pct != 100) pct = pct.toFixed(1)
		matchedtxt.firstChild.nodeValue = "Matched: " + pct + "%";
	}
]]>
</script>
<rect x="0.0" y="0" width="2400.0" height="2182.0" fill="url(#background)"  />
<text id="title" x="1200.00" y="24" >Flame Graph</text>
<text id="details" x="10.00" y="2165" > </text>
<text id="unzoom" x="10.00" y="24" class="hide">Reset Zoom</text>
<text id="search" x="2290.00" y="24" >Search</text>
<text id="ignorecase" x="2374.00" y="24" >ic</text>
<text id="matched" x="2290.00" y="2165" > </text>
<g id="frames">
<g >
<title>exit_mm (49,157,818 samples, 0.05%)</title><rect x="16.2" y="1717" width="1.1" height="47.0" fill="rgb(236,144,34)" rx="2" ry="2" />
<text  x="19.23" y="1743.5" ></text>
</g>
<g >
<title>remove_vma (49,157,818 samples, 0.05%)</title><rect x="16.2" y="1525" width="1.1" height="47.0" fill="rgb(232,124,29)" rx="2" ry="2" />
<text  x="19.23" y="1551.5" ></text>
</g>
<g >
<title>do_syscall_64 (49,164,114 samples, 0.05%)</title><rect x="16.2" y="1957" width="1.1" height="47.0" fill="rgb(209,20,4)" rx="2" ry="2" />
<text  x="19.23" y="1983.5" ></text>
</g>
<g >
<title>hrtimer_interrupt (141,480,888 samples, 0.14%)</title><rect x="335.3" y="1765" width="3.2" height="47.0" fill="rgb(228,109,26)" rx="2" ry="2" />
<text  x="338.31" y="1791.5" ></text>
</g>
<g >
<title>netif_receive_skb_list_internal (48,541,311 samples, 0.05%)</title><rect x="334.2" y="1477" width="1.1" height="47.0" fill="rgb(238,151,36)" rx="2" ry="2" />
<text  x="337.20" y="1503.5" ></text>
</g>
<g >
<title>main (47,349,530 samples, 0.05%)</title><rect x="2388.9" y="2005" width="1.1" height="47.0" fill="rgb(243,179,42)" rx="2" ry="2" />
<text  x="2391.91" y="2031.5" ></text>
</g>
<g >
<title>[unknown]  (47,349,530 samples, 0.05%)</title><rect x="2388.9" y="1861" width="1.1" height="47.0" fill="rgb(253,223,53)" rx="2" ry="2" />
<text  x="2391.91" y="1887.5" ></text>
</g>
<g >
<title>__slab_free (49,157,818 samples, 0.05%)</title><rect x="16.2" y="1381" width="1.1" height="47.0" fill="rgb(222,78,18)" rx="2" ry="2" />
<text  x="19.23" y="1407.5" ></text>
</g>
<g >
<title>[unknown] (6,371,599 samples, 0.01%)</title><rect x="16.1" y="2005" width="0.1" height="47.0" fill="rgb(210,24,5)" rx="2" ry="2" />
<text  x="19.08" y="2031.5" ></text>
</g>
<g >
<title>[unknown]  (204,996,383 samples, 0.20%)</title><rect x="11.3" y="1813" width="4.7" height="47.0" fill="rgb(253,223,53)" rx="2" ry="2" />
<text  x="14.32" y="1839.5" ></text>
</g>
<g >
<title>[unknown]  (145,961,725 samples, 0.14%)</title><rect x="11.4" y="1765" width="3.3" height="47.0" fill="rgb(253,223,53)" rx="2" ry="2" />
<text  x="14.36" y="1791.5" ></text>
</g>
<g >
<title>ip_local_deliver (48,541,311 samples, 0.05%)</title><rect x="334.2" y="1285" width="1.1" height="47.0" fill="rgb(230,116,27)" rx="2" ry="2" />
<text  x="337.20" y="1311.5" ></text>
</g>
<g >
<title>__mmput (49,157,818 samples, 0.05%)</title><rect x="16.2" y="1621" width="1.1" height="47.0" fill="rgb(249,203,48)" rx="2" ry="2" />
<text  x="19.23" y="1647.5" ></text>
</g>
<g >
<title>__sysvec_apic_timer_interrupt (141,480,888 samples, 0.14%)</title><rect x="335.3" y="1813" width="3.2" height="47.0" fill="rgb(242,173,41)" rx="2" ry="2" />
<text  x="338.31" y="1839.5" ></text>
</g>
<g >
<title>getLight (1,294,466,533 samples, 1.24%)</title><rect x="1979.0" y="1957" width="29.5" height="47.0" fill="rgb(240,163,39)" rx="2" ry="2" />
<text  x="1981.98" y="1983.5" >ge..</text>
</g>
<g >
<title>entry_SYSCALL_64_after_hwframe (49,164,114 samples, 0.05%)</title><rect x="16.2" y="2005" width="1.1" height="47.0" fill="rgb(218,63,15)" rx="2" ry="2" />
<text  x="19.23" y="2031.5" ></text>
</g>
<g >
<title>[unknown]  (256,017,630 samples, 0.25%)</title><rect x="10.2" y="1957" width="5.8" height="47.0" fill="rgb(253,223,53)" rx="2" ry="2" />
<text  x="13.18" y="1983.5" ></text>
</g>
<g >
<title>ieee80211_tx_dequeue (48,541,311 samples, 0.05%)</title><rect x="334.2" y="37" width="1.1" height="47.0" fill="rgb(253,221,53)" rx="2" ry="2" />
<text  x="337.20" y="63.5" ></text>
</g>
<g >
<title>refresh (95,173,453 samples, 0.09%)</title><rect x="2008.5" y="1957" width="2.2" height="47.0" fill="rgb(212,32,7)" rx="2" ry="2" />
<text  x="2011.49" y="1983.5" ></text>
</g>
<g >
<title>ip_protocol_deliver_rcu (48,541,311 samples, 0.05%)</title><rect x="334.2" y="1189" width="1.1" height="47.0" fill="rgb(215,49,11)" rx="2" ry="2" />
<text  x="337.20" y="1215.5" ></text>
</g>
<g >
<title>ip_finish_output (48,541,311 samples, 0.05%)</title><rect x="334.2" y="613" width="1.1" height="47.0" fill="rgb(242,173,41)" rx="2" ry="2" />
<text  x="337.20" y="639.5" ></text>
</g>
<g >
<title>mmput (49,157,818 samples, 0.05%)</title><rect x="16.2" y="1669" width="1.1" height="47.0" fill="rgb(226,99,23)" rx="2" ry="2" />
<text  x="19.23" y="1695.5" ></text>
</g>
<g >
<title>irq_exit_rcu (48,541,311 samples, 0.05%)</title><rect x="334.2" y="1813" width="1.1" height="47.0" fill="rgb(254,227,54)" rx="2" ry="2" />
<text  x="337.20" y="1839.5" ></text>
</g>
<g >
<title>[unknown]  (47,349,530 samples, 0.05%)</title><rect x="2388.9" y="1909" width="1.1" height="47.0" fill="rgb(253,223,53)" rx="2" ry="2" />
<text  x="2391.91" y="1935.5" ></text>
</g>
<g >
<title>ip_output (48,541,311 samples, 0.05%)</title><rect x="334.2" y="661" width="1.1" height="47.0" fill="rgb(247,194,46)" rx="2" ry="2" />
<text  x="337.20" y="687.5" ></text>
</g>
<g >
<title>__netif_receive_skb_core.constprop.0 (48,541,311 samples, 0.05%)</title><rect x="334.2" y="1381" width="1.1" height="47.0" fill="rgb(244,182,43)" rx="2" ry="2" />
<text  x="337.20" y="1407.5" ></text>
</g>
<g >
<title>Vector::operator- (432,132,892 samples, 0.41%)</title><rect x="1948.6" y="1957" width="9.9" height="47.0" fill="rgb(214,42,10)" rx="2" ry="2" />
<text  x="1951.61" y="1983.5" ></text>
</g>
<g >
<title>scheduler_tick (47,787,642 samples, 0.05%)</title><rect x="1939.9" y="1525" width="1.1" height="47.0" fill="rgb(246,190,45)" rx="2" ry="2" />
<text  x="1942.90" y="1551.5" ></text>
</g>
<g >
<title>__napi_poll (48,541,311 samples, 0.05%)</title><rect x="334.2" y="1621" width="1.1" height="47.0" fill="rgb(247,195,46)" rx="2" ry="2" />
<text  x="337.20" y="1647.5" ></text>
</g>
<g >
<title>calcColor (899,652,867 samples, 0.86%)</title><rect x="1958.5" y="1957" width="20.5" height="47.0" fill="rgb(209,19,4)" rx="2" ry="2" />
<text  x="1961.46" y="1983.5" ></text>
</g>
<g >
<title>tick_nohz_highres_handler (47,787,642 samples, 0.05%)</title><rect x="1939.9" y="1669" width="1.1" height="47.0" fill="rgb(215,50,11)" rx="2" ry="2" />
<text  x="1942.90" y="1695.5" ></text>
</g>
<g >
<title>do_exit (49,157,818 samples, 0.05%)</title><rect x="16.2" y="1765" width="1.1" height="47.0" fill="rgb(231,122,29)" rx="2" ry="2" />
<text  x="19.23" y="1791.5" ></text>
</g>
<g >
<title>exit_mmap (49,157,818 samples, 0.05%)</title><rect x="16.2" y="1573" width="1.1" height="47.0" fill="rgb(236,143,34)" rx="2" ry="2" />
<text  x="19.23" y="1599.5" ></text>
</g>
<g >
<title>ieee80211_handle_wake_tx_queue (48,541,311 samples, 0.05%)</title><rect x="334.2" y="85" width="1.1" height="47.0" fill="rgb(230,115,27)" rx="2" ry="2" />
<text  x="337.20" y="111.5" ></text>
</g>
<g >
<title>ip_queue_xmit (48,541,311 samples, 0.05%)</title><rect x="334.2" y="805" width="1.1" height="47.0" fill="rgb(230,119,28)" rx="2" ry="2" />
<text  x="337.20" y="831.5" ></text>
</g>
<g >
<title>do_group_exit (49,157,818 samples, 0.05%)</title><rect x="16.2" y="1813" width="1.1" height="47.0" fill="rgb(219,67,16)" rx="2" ry="2" />
<text  x="19.23" y="1839.5" ></text>
</g>
<g >
<title>net_rx_action (48,541,311 samples, 0.05%)</title><rect x="334.2" y="1669" width="1.1" height="47.0" fill="rgb(240,164,39)" rx="2" ry="2" />
<text  x="337.20" y="1695.5" ></text>
</g>
<g >
<title>[unknown] (5,536,483 samples, 0.01%)</title><rect x="16.1" y="1957" width="0.1" height="47.0" fill="rgb(210,24,5)" rx="2" ry="2" />
<text  x="19.10" y="1983.5" ></text>
</g>
<g >
<title>ip_finish_output2 (48,541,311 samples, 0.05%)</title><rect x="334.2" y="517" width="1.1" height="47.0" fill="rgb(219,67,16)" rx="2" ry="2" />
<text  x="337.20" y="543.5" ></text>
</g>
<g >
<title>__netif_receive_skb_list_core (48,541,311 samples, 0.05%)</title><rect x="334.2" y="1429" width="1.1" height="47.0" fill="rgb(227,101,24)" rx="2" ry="2" />
<text  x="337.20" y="1455.5" ></text>
</g>
<g >
<title>__tcp_ack_snd_check (48,541,311 samples, 0.05%)</title><rect x="334.2" y="997" width="1.1" height="47.0" fill="rgb(231,121,29)" rx="2" ry="2" />
<text  x="337.20" y="1023.5" ></text>
</g>
<g >
<title>count_memcg_events.constprop.0 (57,431,587 samples, 0.06%)</title><rect x="14.7" y="1573" width="1.3" height="47.0" fill="rgb(213,41,9)" rx="2" ry="2" />
<text  x="17.69" y="1599.5" ></text>
</g>
<g >
<title>[unknown]  (259,063,759 samples, 0.25%)</title><rect x="10.2" y="2005" width="5.9" height="47.0" fill="rgb(253,223,53)" rx="2" ry="2" />
<text  x="13.17" y="2031.5" ></text>
</g>
<g >
<title>Triangle::getIntersection (7,156,695,859 samples, 6.86%)</title><rect x="175.4" y="1957" width="163.1" height="47.0" fill="rgb(226,98,23)" rx="2" ry="2" />
<text  x="178.35" y="1983.5" >Triangle::getIntersec..</text>
</g>
<g >
<title>sysvec_apic_timer_interrupt (47,341,023 samples, 0.05%)</title><rect x="2387.8" y="1861" width="1.1" height="47.0" fill="rgb(220,69,16)" rx="2" ry="2" />
<text  x="2390.82" y="1887.5" ></text>
</g>
<g >
<title>sysvec_apic_timer_interrupt (48,543,233 samples, 0.05%)</title><rect x="1976.8" y="1861" width="1.1" height="47.0" fill="rgb(220,69,16)" rx="2" ry="2" />
<text  x="1979.79" y="1887.5" ></text>
</g>
<g >
<title>ieee80211_xmit_fast (48,541,311 samples, 0.05%)</title><rect x="334.2" y="229" width="1.1" height="47.0" fill="rgb(237,151,36)" rx="2" ry="2" />
<text  x="337.20" y="255.5" ></text>
</g>
<g >
<title>ffmpeg (317,837,882 samples, 0.30%)</title><rect x="10.1" y="2053" width="7.2" height="47.0" fill="rgb(250,208,49)" rx="2" ry="2" />
<text  x="13.10" y="2079.5" ></text>
</g>
<g >
<title>[unknown]  (204,996,383 samples, 0.20%)</title><rect x="11.3" y="1861" width="4.7" height="47.0" fill="rgb(253,223,53)" rx="2" ry="2" />
<text  x="14.32" y="1887.5" ></text>
</g>
<g >
<title>__tcp_transmit_skb (48,541,311 samples, 0.05%)</title><rect x="334.2" y="853" width="1.1" height="47.0" fill="rgb(231,122,29)" rx="2" ry="2" />
<text  x="337.20" y="879.5" ></text>
</g>
<g >
<title>Triangle::getLightIntersection (185,135,369 samples, 0.18%)</title><rect x="338.5" y="1957" width="4.3" height="47.0" fill="rgb(220,72,17)" rx="2" ry="2" />
<text  x="341.54" y="1983.5" ></text>
</g>
<g >
<title>[unknown]  (255,336,323 samples, 0.24%)</title><rect x="10.2" y="1909" width="5.8" height="47.0" fill="rgb(253,223,53)" rx="2" ry="2" />
<text  x="13.18" y="1935.5" ></text>
</g>
<g >
<title>__hrtimer_next_event_base (48,543,233 samples, 0.05%)</title><rect x="1976.8" y="1669" width="1.1" height="47.0" fill="rgb(246,191,45)" rx="2" ry="2" />
<text  x="1979.79" y="1695.5" ></text>
</g>
<g >
<title>[libm.so.6] (47,322,519 samples, 0.05%)</title><rect x="1977.9" y="1861" width="1.1" height="47.0" fill="rgb(208,16,4)" rx="2" ry="2" />
<text  x="1980.90" y="1887.5" ></text>
</g>
<g >
<title>all (104,378,819,472 samples, 100%)</title><rect x="10.0" y="2101" width="2380.0" height="47.0" fill="rgb(213,39,9)" rx="2" ry="2" />
<text  x="13.00" y="2127.5" ></text>
</g>
<g >
<title>handle_softirqs (48,541,311 samples, 0.05%)</title><rect x="334.2" y="1717" width="1.1" height="47.0" fill="rgb(238,156,37)" rx="2" ry="2" />
<text  x="337.20" y="1743.5" ></text>
</g>
<g >
<title>tick_nohz_highres_handler (141,480,888 samples, 0.14%)</title><rect x="335.3" y="1669" width="3.2" height="47.0" fill="rgb(215,50,11)" rx="2" ry="2" />
<text  x="338.31" y="1695.5" ></text>
</g>
<g >
<title>atan2f32x (47,322,519 samples, 0.05%)</title><rect x="1977.9" y="1909" width="1.1" height="47.0" fill="rgb(240,164,39)" rx="2" ry="2" />
<text  x="1980.90" y="1935.5" ></text>
</g>
<g >
<title>__sysvec_apic_timer_interrupt (48,543,233 samples, 0.05%)</title><rect x="1976.8" y="1813" width="1.1" height="47.0" fill="rgb(242,173,41)" rx="2" ry="2" />
<text  x="1979.79" y="1839.5" ></text>
</g>
<g >
<title>tcp_v4_do_rcv (48,541,311 samples, 0.05%)</title><rect x="334.2" y="1093" width="1.1" height="47.0" fill="rgb(210,26,6)" rx="2" ry="2" />
<text  x="337.20" y="1119.5" ></text>
</g>
<g >
<title>__ip_finish_output (48,541,311 samples, 0.05%)</title><rect x="334.2" y="565" width="1.1" height="47.0" fill="rgb(215,47,11)" rx="2" ry="2" />
<text  x="337.20" y="591.5" ></text>
</g>
<g >
<title>asm_sysvec_apic_timer_interrupt (47,341,023 samples, 0.05%)</title><rect x="2387.8" y="1909" width="1.1" height="47.0" fill="rgb(232,127,30)" rx="2" ry="2" />
<text  x="2390.82" y="1935.5" ></text>
</g>
<g >
<title>__update_load_avg_cfs_rq (94,366,091 samples, 0.09%)</title><rect x="336.4" y="1381" width="2.1" height="47.0" fill="rgb(228,107,25)" rx="2" ry="2" />
<text  x="339.38" y="1407.5" ></text>
</g>
<g >
<title>common_interrupt (48,541,311 samples, 0.05%)</title><rect x="334.2" y="1861" width="1.1" height="47.0" fill="rgb(215,46,11)" rx="2" ry="2" />
<text  x="337.20" y="1887.5" ></text>
</g>
<g >
<title>ip_local_deliver_finish (48,541,311 samples, 0.05%)</title><rect x="334.2" y="1237" width="1.1" height="47.0" fill="rgb(225,95,22)" rx="2" ry="2" />
<text  x="337.20" y="1263.5" ></text>
</g>
<g >
<title>__tcp_send_ack.part.0 (48,541,311 samples, 0.05%)</title><rect x="334.2" y="901" width="1.1" height="47.0" fill="rgb(246,192,46)" rx="2" ry="2" />
<text  x="337.20" y="927.5" ></text>
</g>
<g >
<title>_raw_spin_lock_irqsave (47,336,557 samples, 0.05%)</title><rect x="2387.8" y="1765" width="1.1" height="47.0" fill="rgb(247,195,46)" rx="2" ry="2" />
<text  x="2390.82" y="1791.5" ></text>
</g>
<g >
<title>sysvec_apic_timer_interrupt (47,787,642 samples, 0.05%)</title><rect x="1939.9" y="1861" width="1.1" height="47.0" fill="rgb(220,69,16)" rx="2" ry="2" />
<text  x="1942.90" y="1887.5" ></text>
</g>
<g >
<title>tick_sched_handle (141,480,888 samples, 0.14%)</title><rect x="335.3" y="1621" width="3.2" height="47.0" fill="rgb(219,68,16)" rx="2" ry="2" />
<text  x="338.31" y="1647.5" ></text>
</g>
<g >
<title>__hrtimer_run_queues (141,480,888 samples, 0.14%)</title><rect x="335.3" y="1717" width="3.2" height="47.0" fill="rgb(237,150,35)" rx="2" ry="2" />
<text  x="338.31" y="1743.5" ></text>
</g>
<g >
<title>task_tick_fair (94,366,091 samples, 0.09%)</title><rect x="336.4" y="1477" width="2.1" height="47.0" fill="rgb(217,57,13)" rx="2" ry="2" />
<text  x="339.38" y="1503.5" ></text>
</g>
<g >
<title>asm_exc_page_fault (57,431,635 samples, 0.06%)</title><rect x="14.7" y="1765" width="1.3" height="47.0" fill="rgb(225,93,22)" rx="2" ry="2" />
<text  x="17.69" y="1791.5" ></text>
</g>
<g >
<title>__ieee80211_subif_start_xmit (48,541,311 samples, 0.05%)</title><rect x="334.2" y="277" width="1.1" height="47.0" fill="rgb(251,211,50)" rx="2" ry="2" />
<text  x="337.20" y="303.5" ></text>
</g>
<g >
<title>hwy::platform::TimerResolution (50,339,940 samples, 0.05%)</title><rect x="10.2" y="1813" width="1.1" height="47.0" fill="rgb(214,42,10)" rx="2" ry="2" />
<text  x="13.18" y="1839.5" ></text>
</g>
<g >
<title>Plane::getIntersection (6,929,240,127 samples, 6.64%)</title><rect x="17.4" y="1957" width="158.0" height="47.0" fill="rgb(232,126,30)" rx="2" ry="2" />
<text  x="20.35" y="1983.5" >Plane::getIntersection</text>
</g>
<g >
<title>__hrtimer_run_queues (47,787,642 samples, 0.05%)</title><rect x="1939.9" y="1717" width="1.1" height="47.0" fill="rgb(237,150,35)" rx="2" ry="2" />
<text  x="1942.90" y="1743.5" ></text>
</g>
<g >
<title>tcp_v4_rcv (48,541,311 samples, 0.05%)</title><rect x="334.2" y="1141" width="1.1" height="47.0" fill="rgb(237,148,35)" rx="2" ry="2" />
<text  x="337.20" y="1167.5" ></text>
</g>
<g >
<title>do_user_addr_fault (57,431,587 samples, 0.06%)</title><rect x="14.7" y="1669" width="1.3" height="47.0" fill="rgb(228,108,25)" rx="2" ry="2" />
<text  x="17.69" y="1695.5" ></text>
</g>
<g >
<title>hrtimer_interrupt (48,543,233 samples, 0.05%)</title><rect x="1976.8" y="1765" width="1.1" height="47.0" fill="rgb(228,109,26)" rx="2" ry="2" />
<text  x="1979.79" y="1791.5" ></text>
</g>
<g >
<title>kmem_cache_free (49,157,818 samples, 0.05%)</title><rect x="16.2" y="1429" width="1.1" height="47.0" fill="rgb(254,225,53)" rx="2" ry="2" />
<text  x="19.23" y="1455.5" ></text>
</g>
<g >
<title>asm_sysvec_apic_timer_interrupt (47,787,642 samples, 0.05%)</title><rect x="1939.9" y="1909" width="1.1" height="47.0" fill="rgb(232,127,30)" rx="2" ry="2" />
<text  x="1942.90" y="1935.5" ></text>
</g>
<g >
<title>ath11k_pcic_ext_grp_napi_poll (48,541,311 samples, 0.05%)</title><rect x="334.2" y="1573" width="1.1" height="47.0" fill="rgb(215,46,11)" rx="2" ry="2" />
<text  x="337.20" y="1599.5" ></text>
</g>
<g >
<title>tcp_rcv_established (48,541,311 samples, 0.05%)</title><rect x="334.2" y="1045" width="1.1" height="47.0" fill="rgb(242,170,40)" rx="2" ry="2" />
<text  x="337.20" y="1071.5" ></text>
</g>
<g >
<title>Vector::operator* (49,396,104,834 samples, 47.32%)</title><rect x="814.7" y="1957" width="1126.3" height="47.0" fill="rgb(233,131,31)" rx="2" ry="2" />
<text  x="817.68" y="1983.5" >Vector::operator*</text>
</g>
<g >
<title>tcp_send_ack (48,541,311 samples, 0.05%)</title><rect x="334.2" y="949" width="1.1" height="47.0" fill="rgb(214,43,10)" rx="2" ry="2" />
<text  x="337.20" y="975.5" ></text>
</g>
<g >
<title>tick_sched_handle (47,787,642 samples, 0.05%)</title><rect x="1939.9" y="1621" width="1.1" height="47.0" fill="rgb(219,68,16)" rx="2" ry="2" />
<text  x="1942.90" y="1647.5" ></text>
</g>
<g >
<title>__ip_queue_xmit (48,541,311 samples, 0.05%)</title><rect x="334.2" y="757" width="1.1" height="47.0" fill="rgb(253,223,53)" rx="2" ry="2" />
<text  x="337.20" y="783.5" ></text>
</g>
<g >
<title>ieee80211_subif_start_xmit (48,541,311 samples, 0.05%)</title><rect x="334.2" y="325" width="1.1" height="47.0" fill="rgb(228,107,25)" rx="2" ry="2" />
<text  x="337.20" y="351.5" ></text>
</g>
<g >
<title>__irq_exit_rcu (48,541,311 samples, 0.05%)</title><rect x="334.2" y="1765" width="1.1" height="47.0" fill="rgb(227,101,24)" rx="2" ry="2" />
<text  x="337.20" y="1791.5" ></text>
</g>
<g >
<title>ieee80211_queue_skb (48,541,311 samples, 0.05%)</title><rect x="334.2" y="133" width="1.1" height="47.0" fill="rgb(208,18,4)" rx="2" ry="2" />
<text  x="337.20" y="159.5" ></text>
</g>
<g >
<title>x64_sys_call (49,164,114 samples, 0.05%)</title><rect x="16.2" y="1909" width="1.1" height="47.0" fill="rgb(247,194,46)" rx="2" ry="2" />
<text  x="19.23" y="1935.5" ></text>
</g>
<g >
<title>__x64_sys_exit_group (49,157,818 samples, 0.05%)</title><rect x="16.2" y="1861" width="1.1" height="47.0" fill="rgb(214,42,10)" rx="2" ry="2" />
<text  x="19.23" y="1887.5" ></text>
</g>
<g >
<title>handle_mm_fault (57,431,587 samples, 0.06%)</title><rect x="14.7" y="1621" width="1.3" height="47.0" fill="rgb(234,135,32)" rx="2" ry="2" />
<text  x="17.69" y="1647.5" ></text>
</g>
<g >
<title>__vm_area_free (49,157,818 samples, 0.05%)</title><rect x="16.2" y="1477" width="1.1" height="47.0" fill="rgb(250,207,49)" rx="2" ry="2" />
<text  x="19.23" y="1503.5" ></text>
</g>
<g >
<title>perf_event_task_tick (47,787,642 samples, 0.05%)</title><rect x="1939.9" y="1477" width="1.1" height="47.0" fill="rgb(205,3,0)" rx="2" ry="2" />
<text  x="1942.90" y="1503.5" ></text>
</g>
<g >
<title>scheduler_tick (94,366,091 samples, 0.09%)</title><rect x="336.4" y="1525" width="2.1" height="47.0" fill="rgb(246,190,45)" rx="2" ry="2" />
<text  x="339.38" y="1551.5" ></text>
</g>
<g >
<title>__sysvec_apic_timer_interrupt (47,787,642 samples, 0.05%)</title><rect x="1939.9" y="1813" width="1.1" height="47.0" fill="rgb(242,173,41)" rx="2" ry="2" />
<text  x="1942.90" y="1839.5" ></text>
</g>
<g >
<title>[libhwy.so.1.0.7] (50,339,940 samples, 0.05%)</title><rect x="10.2" y="1861" width="1.1" height="47.0" fill="rgb(213,37,9)" rx="2" ry="2" />
<text  x="13.18" y="1887.5" ></text>
</g>
<g >
<title>sysvec_apic_timer_interrupt (141,480,888 samples, 0.14%)</title><rect x="335.3" y="1861" width="3.2" height="47.0" fill="rgb(220,69,16)" rx="2" ry="2" />
<text  x="338.31" y="1887.5" ></text>
</g>
<g >
<title>hrtimer_update_next_event (48,543,233 samples, 0.05%)</title><rect x="1976.8" y="1717" width="1.1" height="47.0" fill="rgb(225,92,22)" rx="2" ry="2" />
<text  x="1979.79" y="1743.5" ></text>
</g>
<g >
<title>__sysvec_apic_timer_interrupt (47,336,557 samples, 0.05%)</title><rect x="2387.8" y="1813" width="1.1" height="47.0" fill="rgb(242,173,41)" rx="2" ry="2" />
<text  x="2390.82" y="1839.5" ></text>
</g>
<g >
<title>ip_rcv (48,541,311 samples, 0.05%)</title><rect x="334.2" y="1333" width="1.1" height="47.0" fill="rgb(209,22,5)" rx="2" ry="2" />
<text  x="337.20" y="1359.5" ></text>
</g>
<g >
<title>asm_sysvec_apic_timer_interrupt (48,543,233 samples, 0.05%)</title><rect x="1976.8" y="1909" width="1.1" height="47.0" fill="rgb(232,127,30)" rx="2" ry="2" />
<text  x="1979.79" y="1935.5" ></text>
</g>
<g >
<title>napi_complete_done (48,541,311 samples, 0.05%)</title><rect x="334.2" y="1525" width="1.1" height="47.0" fill="rgb(234,137,32)" rx="2" ry="2" />
<text  x="337.20" y="1551.5" ></text>
</g>
<g >
<title>__dev_queue_xmit (48,541,311 samples, 0.05%)</title><rect x="334.2" y="421" width="1.1" height="47.0" fill="rgb(244,182,43)" rx="2" ry="2" />
<text  x="337.20" y="447.5" ></text>
</g>
<g >
<title>update_process_times (141,480,888 samples, 0.14%)</title><rect x="335.3" y="1573" width="3.2" height="47.0" fill="rgb(250,209,50)" rx="2" ry="2" />
<text  x="338.31" y="1599.5" ></text>
</g>
<g >
<title>hrtimer_interrupt (47,787,642 samples, 0.05%)</title><rect x="1939.9" y="1765" width="1.1" height="47.0" fill="rgb(228,109,26)" rx="2" ry="2" />
<text  x="1942.90" y="1791.5" ></text>
</g>
<g >
<title>Vector::operator+ (334,106,827 samples, 0.32%)</title><rect x="1941.0" y="1957" width="7.6" height="47.0" fill="rgb(227,102,24)" rx="2" ry="2" />
<text  x="1943.99" y="1983.5" ></text>
</g>
<g >
<title>update_load_avg (94,366,091 samples, 0.09%)</title><rect x="336.4" y="1429" width="2.1" height="47.0" fill="rgb(240,165,39)" rx="2" ry="2" />
<text  x="339.38" y="1455.5" ></text>
</g>
<g >
<title>[unknown] (104,008,142,235 samples, 99.64%)</title><rect x="17.4" y="2005" width="2371.5" height="47.0" fill="rgb(210,24,5)" rx="2" ry="2" />
<text  x="20.35" y="2031.5" >[unknown]</text>
</g>
<g >
<title>asm_common_interrupt (48,541,311 samples, 0.05%)</title><rect x="334.2" y="1909" width="1.1" height="47.0" fill="rgb(227,105,25)" rx="2" ry="2" />
<text  x="337.20" y="1935.5" ></text>
</g>
<g >
<title>update_process_times (47,787,642 samples, 0.05%)</title><rect x="1939.9" y="1573" width="1.1" height="47.0" fill="rgb(250,209,50)" rx="2" ry="2" />
<text  x="1942.90" y="1599.5" ></text>
</g>
<g >
<title>perf_adjust_freq_unthr_context (47,787,642 samples, 0.05%)</title><rect x="1939.9" y="1429" width="1.1" height="47.0" fill="rgb(236,146,35)" rx="2" ry="2" />
<text  x="1942.90" y="1455.5" ></text>
</g>
<g >
<title>asm_sysvec_apic_timer_interrupt (141,480,888 samples, 0.14%)</title><rect x="335.3" y="1909" width="3.2" height="47.0" fill="rgb(232,127,30)" rx="2" ry="2" />
<text  x="338.31" y="1935.5" ></text>
</g>
<g >
<title>exc_page_fault (57,431,635 samples, 0.06%)</title><rect x="14.7" y="1717" width="1.3" height="47.0" fill="rgb(212,35,8)" rx="2" ry="2" />
<text  x="17.69" y="1743.5" ></text>
</g>
<g >
<title>[unknown]  (47,349,530 samples, 0.05%)</title><rect x="2388.9" y="1957" width="1.1" height="47.0" fill="rgb(253,223,53)" rx="2" ry="2" />
<text  x="2391.91" y="1983.5" ></text>
</g>
<g >
<title>solveScalers (16,588,355,344 samples, 15.89%)</title><rect x="2010.7" y="1957" width="378.2" height="47.0" fill="rgb(209,20,4)" rx="2" ry="2" />
<text  x="2013.66" y="1983.5" >solveScalers</text>
</g>
<g >
<title>main.exe (104,056,190,543 samples, 99.69%)</title><rect x="17.3" y="2053" width="2372.7" height="47.0" fill="rgb(216,53,12)" rx="2" ry="2" />
<text  x="20.35" y="2079.5" >main.exe</text>
</g>
<g >
<title>ip_local_out (48,541,311 samples, 0.05%)</title><rect x="334.2" y="709" width="1.1" height="47.0" fill="rgb(233,131,31)" rx="2" ry="2" />
<text  x="337.20" y="735.5" ></text>
</g>
<g >
<title>dev_hard_start_xmit (48,541,311 samples, 0.05%)</title><rect x="334.2" y="373" width="1.1" height="47.0" fill="rgb(219,66,15)" rx="2" ry="2" />
<text  x="337.20" y="399.5" ></text>
</g>
<g >
<title>[unknown]  (145,772,795 samples, 0.14%)</title><rect x="11.4" y="1717" width="3.3" height="47.0" fill="rgb(253,223,53)" rx="2" ry="2" />
<text  x="14.36" y="1743.5" ></text>
</g>
<g >
<title>neigh_hh_output (48,541,311 samples, 0.05%)</title><rect x="334.2" y="469" width="1.1" height="47.0" fill="rgb(213,37,8)" rx="2" ry="2" />
<text  x="337.20" y="495.5" ></text>
</g>
<g >
<title>__ieee80211_xmit_fast (48,541,311 samples, 0.05%)</title><rect x="334.2" y="181" width="1.1" height="47.0" fill="rgb(210,25,6)" rx="2" ry="2" />
<text  x="337.20" y="207.5" ></text>
</g>
<g >
<title>Vector::dot (20,697,073,771 samples, 19.83%)</title><rect x="342.8" y="1957" width="471.9" height="47.0" fill="rgb(251,213,51)" rx="2" ry="2" />
<text  x="345.76" y="1983.5" >Vector::dot</text>
</g>
</g>
</svg>
