<?xml version="1.0" standalone="no"?>
<!DOCTYPE svg PUBLIC "-//W3C//DTD SVG 1.1//EN" "http://www.w3.org/Graphics/SVG/1.1/DTD/svg11.dtd">
<svg version="1.1" width="2400" height="1078" onload="init(evt)" viewBox="0 0 2400 1078" xmlns="http://www.w3.org/2000/svg" xmlns:xlink="http://www.w3.org/1999/xlink">
<!-- Flame graph stack visualization. See https://github.com/brendangregg/FlameGraph for latest version, and http://www.brendangregg.com/flamegraphs.html for examples. -->
<!-- NOTES:  -->
<defs>
	<linearGradient id="background" y1="0" y2="1" x1="0" x2="0" >
		<stop stop-color="#eeeeee" offset="5%" />
		<stop stop-color="#eeeeb0" offset="95%" />
	</linearGradient>
</defs>
<style type="text/css">
	text { font-family:Verdana; font-size:12px; fill:rgb(0,0,0); }
	#search, #ignorecase { opacity:0.1; cursor:pointer; }
	#search:hover, #search.show, #ignorecase:hover, #ignorecase.show { opacity:1; }
	#subtitle { text-anchor:middle; font-color:rgb(160,160,160); }
	#title { text-anchor:middle; font-size:17px}
	#unzoom { cursor:pointer; }
	#frames > *:hover { stroke:black; stroke-width:0.5; cursor:pointer; }
	.hide { display:none; }
	.parent { opacity:0.5; }
</style>
<script type="text/ecmascript">
<![CDATA[
	"use strict";
	var details, searchbtn, unzoombtn, matchedtxt, svg, searching, currentSearchTerm, ignorecase, ignorecaseBtn;
	function init(evt) {
		details = document.getElementById("details").firstChild;
		searchbtn = document.getElementById("search");
		ignorecaseBtn = document.getElementById("ignorecase");
		unzoombtn = document.getElementById("unzoom");
		matchedtxt = document.getElementById("matched");
		svg = document.getElementsByTagName("svg")[0];
		searching = 0;
		currentSearchTerm = null;

		// use GET parameters to restore a flamegraphs state.
		var params = get_params();
		if (params.x && params.y)
			zoom(find_group(document.querySelector('[x="' + params.x + '"][y="' + params.y + '"]')));
                if (params.s) search(params.s);
	}

	// event listeners
	window.addEventListener("click", function(e) {
		var target = find_group(e.target);
		if (target) {
			if (target.nodeName == "a") {
				if (e.ctrlKey === false) return;
				e.preventDefault();
			}
			if (target.classList.contains("parent")) unzoom(true);
			zoom(target);
			if (!document.querySelector('.parent')) {
				// we have basically done a clearzoom so clear the url
				var params = get_params();
				if (params.x) delete params.x;
				if (params.y) delete params.y;
				history.replaceState(null, null, parse_params(params));
				unzoombtn.classList.add("hide");
				return;
			}

			// set parameters for zoom state
			var el = target.querySelector("rect");
			if (el && el.attributes && el.attributes.y && el.attributes._orig_x) {
				var params = get_params()
				params.x = el.attributes._orig_x.value;
				params.y = el.attributes.y.value;
				history.replaceState(null, null, parse_params(params));
			}
		}
		else if (e.target.id == "unzoom") clearzoom();
		else if (e.target.id == "search") search_prompt();
		else if (e.target.id == "ignorecase") toggle_ignorecase();
	}, false)

	// mouse-over for info
	// show
	window.addEventListener("mouseover", function(e) {
		var target = find_group(e.target);
		if (target) details.nodeValue = "Function: " + g_to_text(target);
	}, false)

	// clear
	window.addEventListener("mouseout", function(e) {
		var target = find_group(e.target);
		if (target) details.nodeValue = ' ';
	}, false)

	// ctrl-F for search
	// ctrl-I to toggle case-sensitive search
	window.addEventListener("keydown",function (e) {
		if (e.keyCode === 114 || (e.ctrlKey && e.keyCode === 70)) {
			e.preventDefault();
			search_prompt();
		}
		else if (e.ctrlKey && e.keyCode === 73) {
			e.preventDefault();
			toggle_ignorecase();
		}
	}, false)

	// functions
	function get_params() {
		var params = {};
		var paramsarr = window.location.search.substr(1).split('&');
		for (var i = 0; i < paramsarr.length; ++i) {
			var tmp = paramsarr[i].split("=");
			if (!tmp[0] || !tmp[1]) continue;
			params[tmp[0]]  = decodeURIComponent(tmp[1]);
		}
		return params;
	}
	function parse_params(params) {
		var uri = "?";
		for (var key in params) {
			uri += key + '=' + encodeURIComponent(params[key]) + '&';
		}
		if (uri.slice(-1) == "&")
			uri = uri.substring(0, uri.length - 1);
		if (uri == '?')
			uri = window.location.href.split('?')[0];
		return uri;
	}
	function find_child(node, selector) {
		var children = node.querySelectorAll(selector);
		if (children.length) return children[0];
	}
	function find_group(node) {
		var parent = node.parentElement;
		if (!parent) return;
		if (parent.id == "frames") return node;
		return find_group(parent);
	}
	function orig_save(e, attr, val) {
		if (e.attributes["_orig_" + attr] != undefined) return;
		if (e.attributes[attr] == undefined) return;
		if (val == undefined) val = e.attributes[attr].value;
		e.setAttribute("_orig_" + attr, val);
	}
	function orig_load(e, attr) {
		if (e.attributes["_orig_"+attr] == undefined) return;
		e.attributes[attr].value = e.attributes["_orig_" + attr].value;
		e.removeAttribute("_orig_"+attr);
	}
	function g_to_text(e) {
		var text = find_child(e, "title").firstChild.nodeValue;
		return (text)
	}
	function g_to_func(e) {
		var func = g_to_text(e);
		// if there's any manipulation we want to do to the function
		// name before it's searched, do it here before returning.
		return (func);
	}
	function update_text(e) {
		var r = find_child(e, "rect");
		var t = find_child(e, "text");
		var w = parseFloat(r.attributes.width.value) -3;
		var txt = find_child(e, "title").textContent.replace(/\([^(]*\)$/,"");
		t.attributes.x.value = parseFloat(r.attributes.x.value) + 3;

		// Smaller than this size won't fit anything
		if (w < 2 * 12 * 0.59) {
			t.textContent = "";
			return;
		}

		t.textContent = txt;
		var sl = t.getSubStringLength(0, txt.length);
		// check if only whitespace or if we can fit the entire string into width w
		if (/^ *$/.test(txt) || sl < w)
			return;

		// this isn't perfect, but gives a good starting point
		// and avoids calling getSubStringLength too often
		var start = Math.floor((w/sl) * txt.length);
		for (var x = start; x > 0; x = x-2) {
			if (t.getSubStringLength(0, x + 2) <= w) {
				t.textContent = txt.substring(0, x) + "..";
				return;
			}
		}
		t.textContent = "";
	}

	// zoom
	function zoom_reset(e) {
		if (e.attributes != undefined) {
			orig_load(e, "x");
			orig_load(e, "width");
		}
		if (e.childNodes == undefined) return;
		for (var i = 0, c = e.childNodes; i < c.length; i++) {
			zoom_reset(c[i]);
		}
	}
	function zoom_child(e, x, ratio) {
		if (e.attributes != undefined) {
			if (e.attributes.x != undefined) {
				orig_save(e, "x");
				e.attributes.x.value = (parseFloat(e.attributes.x.value) - x - 10) * ratio + 10;
				if (e.tagName == "text")
					e.attributes.x.value = find_child(e.parentNode, "rect[x]").attributes.x.value + 3;
			}
			if (e.attributes.width != undefined) {
				orig_save(e, "width");
				e.attributes.width.value = parseFloat(e.attributes.width.value) * ratio;
			}
		}

		if (e.childNodes == undefined) return;
		for (var i = 0, c = e.childNodes; i < c.length; i++) {
			zoom_child(c[i], x - 10, ratio);
		}
	}
	function zoom_parent(e) {
		if (e.attributes) {
			if (e.attributes.x != undefined) {
				orig_save(e, "x");
				e.attributes.x.value = 10;
			}
			if (e.attributes.width != undefined) {
				orig_save(e, "width");
				e.attributes.width.value = parseInt(svg.width.baseVal.value) - (10 * 2);
			}
		}
		if (e.childNodes == undefined) return;
		for (var i = 0, c = e.childNodes; i < c.length; i++) {
			zoom_parent(c[i]);
		}
	}
	function zoom(node) {
		var attr = find_child(node, "rect").attributes;
		var width = parseFloat(attr.width.value);
		var xmin = parseFloat(attr.x.value);
		var xmax = parseFloat(xmin + width);
		var ymin = parseFloat(attr.y.value);
		var ratio = (svg.width.baseVal.value - 2 * 10) / width;

		// XXX: Workaround for JavaScript float issues (fix me)
		var fudge = 0.0001;

		unzoombtn.classList.remove("hide");

		var el = document.getElementById("frames").children;
		for (var i = 0; i < el.length; i++) {
			var e = el[i];
			var a = find_child(e, "rect").attributes;
			var ex = parseFloat(a.x.value);
			var ew = parseFloat(a.width.value);
			var upstack;
			// Is it an ancestor
			if (0 == 0) {
				upstack = parseFloat(a.y.value) > ymin;
			} else {
				upstack = parseFloat(a.y.value) < ymin;
			}
			if (upstack) {
				// Direct ancestor
				if (ex <= xmin && (ex+ew+fudge) >= xmax) {
					e.classList.add("parent");
					zoom_parent(e);
					update_text(e);
				}
				// not in current path
				else
					e.classList.add("hide");
			}
			// Children maybe
			else {
				// no common path
				if (ex < xmin || ex + fudge >= xmax) {
					e.classList.add("hide");
				}
				else {
					zoom_child(e, xmin, ratio);
					update_text(e);
				}
			}
		}
		search();
	}
	function unzoom(dont_update_text) {
		unzoombtn.classList.add("hide");
		var el = document.getElementById("frames").children;
		for(var i = 0; i < el.length; i++) {
			el[i].classList.remove("parent");
			el[i].classList.remove("hide");
			zoom_reset(el[i]);
			if(!dont_update_text) update_text(el[i]);
		}
		search();
	}
	function clearzoom() {
		unzoom();

		// remove zoom state
		var params = get_params();
		if (params.x) delete params.x;
		if (params.y) delete params.y;
		history.replaceState(null, null, parse_params(params));
	}

	// search
	function toggle_ignorecase() {
		ignorecase = !ignorecase;
		if (ignorecase) {
			ignorecaseBtn.classList.add("show");
		} else {
			ignorecaseBtn.classList.remove("show");
		}
		reset_search();
		search();
	}
	function reset_search() {
		var el = document.querySelectorAll("#frames rect");
		for (var i = 0; i < el.length; i++) {
			orig_load(el[i], "fill")
		}
		var params = get_params();
		delete params.s;
		history.replaceState(null, null, parse_params(params));
	}
	function search_prompt() {
		if (!searching) {
			var term = prompt("Enter a search term (regexp " +
			    "allowed, eg: ^ext4_)"
			    + (ignorecase ? ", ignoring case" : "")
			    + "\nPress Ctrl-i to toggle case sensitivity", "");
			if (term != null) search(term);
		} else {
			reset_search();
			searching = 0;
			currentSearchTerm = null;
			searchbtn.classList.remove("show");
			searchbtn.firstChild.nodeValue = "Search"
			matchedtxt.classList.add("hide");
			matchedtxt.firstChild.nodeValue = ""
		}
	}
	function search(term) {
		if (term) currentSearchTerm = term;
		if (currentSearchTerm === null) return;

		var re = new RegExp(currentSearchTerm, ignorecase ? 'i' : '');
		var el = document.getElementById("frames").children;
		var matches = new Object();
		var maxwidth = 0;
		for (var i = 0; i < el.length; i++) {
			var e = el[i];
			var func = g_to_func(e);
			var rect = find_child(e, "rect");
			if (func == null || rect == null)
				continue;

			// Save max width. Only works as we have a root frame
			var w = parseFloat(rect.attributes.width.value);
			if (w > maxwidth)
				maxwidth = w;

			if (func.match(re)) {
				// highlight
				var x = parseFloat(rect.attributes.x.value);
				orig_save(rect, "fill");
				rect.attributes.fill.value = "rgb(230,0,230)";

				// remember matches
				if (matches[x] == undefined) {
					matches[x] = w;
				} else {
					if (w > matches[x]) {
						// overwrite with parent
						matches[x] = w;
					}
				}
				searching = 1;
			}
		}
		if (!searching)
			return;
		var params = get_params();
		params.s = currentSearchTerm;
		history.replaceState(null, null, parse_params(params));

		searchbtn.classList.add("show");
		searchbtn.firstChild.nodeValue = "Reset Search";

		// calculate percent matched, excluding vertical overlap
		var count = 0;
		var lastx = -1;
		var lastw = 0;
		var keys = Array();
		for (k in matches) {
			if (matches.hasOwnProperty(k))
				keys.push(k);
		}
		// sort the matched frames by their x location
		// ascending, then width descending
		keys.sort(function(a, b){
			return a - b;
		});
		// Step through frames saving only the biggest bottom-up frames
		// thanks to the sort order. This relies on the tree property
		// where children are always smaller than their parents.
		var fudge = 0.0001;	// JavaScript floating point
		for (var k in keys) {
			var x = parseFloat(keys[k]);
			var w = matches[keys[k]];
			if (x >= lastx + lastw - fudge) {
				count += w;
				lastx = x;
				lastw = w;
			}
		}
		// display matched percent
		matchedtxt.classList.remove("hide");
		var pct = 100 * count / maxwidth;
		if (pct != 100) pct = pct.toFixed(1)
		matchedtxt.firstChild.nodeValue = "Matched: " + pct + "%";
	}
]]>
</script>
<rect x="0.0" y="0" width="2400.0" height="1078.0" fill="url(#background)"  />
<text id="title" x="1200.00" y="24" >Flame Graph</text>
<text id="details" x="10.00" y="1061" > </text>
<text id="unzoom" x="10.00" y="24" class="hide">Reset Zoom</text>
<text id="search" x="2290.00" y="24" >Search</text>
<text id="ignorecase" x="2374.00" y="24" >ic</text>
<text id="matched" x="2290.00" y="1061" > </text>
<g id="frames">
<g >
<title>hrtimer_interrupt (142,300,448 samples, 0.14%)</title><rect x="1125.5" y="661" width="3.4" height="47.0" fill="rgb(228,109,26)" rx="2" ry="2" />
<text  x="1128.50" y="687.5" ></text>
</g>
<g >
<title>asm_exc_page_fault (60,650,412 samples, 0.06%)</title><rect x="20.6" y="661" width="1.5" height="47.0" fill="rgb(225,93,22)" rx="2" ry="2" />
<text  x="23.61" y="687.5" ></text>
</g>
<g >
<title>Plane::solveScalers (40,889,716,664 samples, 41.25%)</title><rect x="148.4" y="853" width="981.7" height="47.0" fill="rgb(206,4,1)" rx="2" ry="2" />
<text  x="151.39" y="879.5" >Plane::solveScalers</text>
</g>
<g >
<title>__irq_exit_rcu (47,647,298 samples, 0.05%)</title><rect x="1128.9" y="661" width="1.2" height="47.0" fill="rgb(227,101,24)" rx="2" ry="2" />
<text  x="1131.92" y="687.5" ></text>
</g>
<g >
<title>tasklet_action_common.constprop.0 (47,409,948 samples, 0.05%)</title><rect x="1124.4" y="517" width="1.1" height="47.0" fill="rgb(248,200,47)" rx="2" ry="2" />
<text  x="1127.37" y="543.5" ></text>
</g>
<g >
<title>delay_halt.part.0 (47,647,298 samples, 0.05%)</title><rect x="1128.9" y="85" width="1.2" height="47.0" fill="rgb(209,21,5)" rx="2" ry="2" />
<text  x="1131.92" y="111.5" ></text>
</g>
<g >
<title>[unknown] (10,715,579 samples, 0.01%)</title><rect x="23.2" y="901" width="0.2" height="47.0" fill="rgb(210,24,5)" rx="2" ry="2" />
<text  x="26.18" y="927.5" ></text>
</g>
<g >
<title>sysvec_apic_timer_interrupt (47,368,342 samples, 0.05%)</title><rect x="2330.8" y="757" width="1.1" height="47.0" fill="rgb(220,69,16)" rx="2" ry="2" />
<text  x="2333.80" y="783.5" ></text>
</g>
<g >
<title>exc_page_fault (5,191,056 samples, 0.01%)</title><rect x="23.3" y="709" width="0.1" height="47.0" fill="rgb(212,35,8)" rx="2" ry="2" />
<text  x="26.25" y="735.5" ></text>
</g>
<g >
<title>__x64_sys_exit_group (42,986,472 samples, 0.04%)</title><rect x="23.6" y="757" width="1.0" height="47.0" fill="rgb(214,42,10)" rx="2" ry="2" />
<text  x="26.56" y="783.5" ></text>
</g>
<g >
<title>scheduler_tick (47,594,978 samples, 0.05%)</title><rect x="2341.1" y="421" width="1.1" height="47.0" fill="rgb(246,190,45)" rx="2" ry="2" />
<text  x="2344.06" y="447.5" ></text>
</g>
<g >
<title>handle_mm_fault (60,650,412 samples, 0.06%)</title><rect x="20.6" y="517" width="1.5" height="47.0" fill="rgb(234,135,32)" rx="2" ry="2" />
<text  x="23.61" y="543.5" ></text>
</g>
<g >
<title>av_malloc (4,654,093 samples, 0.00%)</title><rect x="23.4" y="901" width="0.1" height="47.0" fill="rgb(228,107,25)" rx="2" ry="2" />
<text  x="26.44" y="927.5" ></text>
</g>
<g >
<title>unmap_vmas (42,986,472 samples, 0.04%)</title><rect x="23.6" y="421" width="1.0" height="47.0" fill="rgb(243,176,42)" rx="2" ry="2" />
<text  x="26.56" y="447.5" ></text>
</g>
<g >
<title>tick_sched_do_timer (47,508,039 samples, 0.05%)</title><rect x="1441.6" y="517" width="1.1" height="47.0" fill="rgb(227,104,25)" rx="2" ry="2" />
<text  x="1444.57" y="543.5" ></text>
</g>
<g >
<title>Vector::Vector (142,538,617 samples, 0.14%)</title><rect x="1458.7" y="853" width="3.4" height="47.0" fill="rgb(213,39,9)" rx="2" ry="2" />
<text  x="1461.67" y="879.5" ></text>
</g>
<g >
<title>_raw_spin_lock_irqsave (47,396,024 samples, 0.05%)</title><rect x="1443.9" y="613" width="1.1" height="47.0" fill="rgb(247,195,46)" rx="2" ry="2" />
<text  x="1446.86" y="639.5" ></text>
</g>
<g >
<title>update_wall_time (47,508,039 samples, 0.05%)</title><rect x="1441.6" y="421" width="1.1" height="47.0" fill="rgb(207,11,2)" rx="2" ry="2" />
<text  x="1444.57" y="447.5" ></text>
</g>
<g >
<title>unmap_page_range (42,986,472 samples, 0.04%)</title><rect x="23.6" y="325" width="1.0" height="47.0" fill="rgb(206,5,1)" rx="2" ry="2" />
<text  x="26.56" y="351.5" ></text>
</g>
<g >
<title>set_pte_range (46,097,715 samples, 0.05%)</title><rect x="22.1" y="277" width="1.1" height="47.0" fill="rgb(224,90,21)" rx="2" ry="2" />
<text  x="25.06" y="303.5" ></text>
</g>
<g >
<title>asm_sysvec_apic_timer_interrupt (47,368,342 samples, 0.05%)</title><rect x="2330.8" y="805" width="1.1" height="47.0" fill="rgb(232,127,30)" rx="2" ry="2" />
<text  x="2333.80" y="831.5" ></text>
</g>
<g >
<title>mmput (42,986,472 samples, 0.04%)</title><rect x="23.6" y="565" width="1.0" height="47.0" fill="rgb(226,99,23)" rx="2" ry="2" />
<text  x="26.56" y="591.5" ></text>
</g>
<g >
<title>fq_flush_iotlb (47,647,298 samples, 0.05%)</title><rect x="1128.9" y="373" width="1.2" height="47.0" fill="rgb(244,182,43)" rx="2" ry="2" />
<text  x="1131.92" y="399.5" ></text>
</g>
<g >
<title>delay_halt (47,647,298 samples, 0.05%)</title><rect x="1128.9" y="133" width="1.2" height="47.0" fill="rgb(250,207,49)" rx="2" ry="2" />
<text  x="1131.92" y="159.5" ></text>
</g>
<g >
<title>common_interrupt (47,580,809 samples, 0.05%)</title><rect x="1440.4" y="757" width="1.2" height="47.0" fill="rgb(215,46,11)" rx="2" ry="2" />
<text  x="1443.43" y="783.5" ></text>
</g>
<g >
<title>ath11k_ce_recv_process_cb (47,580,809 samples, 0.05%)</title><rect x="1440.4" y="373" width="1.2" height="47.0" fill="rgb(226,100,23)" rx="2" ry="2" />
<text  x="1443.43" y="399.5" ></text>
</g>
<g >
<title>account_process_tick (47,531,867 samples, 0.05%)</title><rect x="1126.6" y="421" width="1.2" height="47.0" fill="rgb(234,136,32)" rx="2" ry="2" />
<text  x="1129.64" y="447.5" ></text>
</g>
<g >
<title>tick_sched_handle (47,651,599 samples, 0.05%)</title><rect x="1442.7" y="517" width="1.2" height="47.0" fill="rgb(219,68,16)" rx="2" ry="2" />
<text  x="1445.71" y="543.5" ></text>
</g>
<g >
<title>do_group_exit (42,986,472 samples, 0.04%)</title><rect x="23.6" y="709" width="1.0" height="47.0" fill="rgb(219,67,16)" rx="2" ry="2" />
<text  x="26.56" y="735.5" ></text>
</g>
<g >
<title>__mmput (42,986,472 samples, 0.04%)</title><rect x="23.6" y="517" width="1.0" height="47.0" fill="rgb(249,203,48)" rx="2" ry="2" />
<text  x="26.56" y="543.5" ></text>
</g>
<g >
<title>handle_pte_fault (5,191,056 samples, 0.01%)</title><rect x="23.3" y="517" width="0.1" height="47.0" fill="rgb(217,57,13)" rx="2" ry="2" />
<text  x="26.25" y="543.5" ></text>
</g>
<g >
<title>folio_remove_rmap_ptes (42,986,472 samples, 0.04%)</title><rect x="23.6" y="181" width="1.0" height="47.0" fill="rgb(219,68,16)" rx="2" ry="2" />
<text  x="26.56" y="207.5" ></text>
</g>
<g >
<title>[unknown]  (370,689,938 samples, 0.37%)</title><rect x="14.3" y="853" width="8.9" height="47.0" fill="rgb(253,223,53)" rx="2" ry="2" />
<text  x="17.27" y="879.5" ></text>
</g>
<g >
<title>tasklet_action_common.constprop.0 (47,580,809 samples, 0.05%)</title><rect x="1440.4" y="517" width="1.2" height="47.0" fill="rgb(248,200,47)" rx="2" ry="2" />
<text  x="1443.43" y="543.5" ></text>
</g>
<g >
<title>do_fault (46,097,715 samples, 0.05%)</title><rect x="22.1" y="421" width="1.1" height="47.0" fill="rgb(248,200,47)" rx="2" ry="2" />
<text  x="25.06" y="447.5" ></text>
</g>
<g >
<title>[unknown]  (324,568,686 samples, 0.33%)</title><rect x="14.3" y="709" width="7.8" height="47.0" fill="rgb(253,223,53)" rx="2" ry="2" />
<text  x="17.27" y="735.5" ></text>
</g>
<g >
<title>[libavcodec.so.60.31.102] (170,370,518 samples, 0.17%)</title><rect x="10.1" y="901" width="4.0" height="47.0" fill="rgb(229,112,26)" rx="2" ry="2" />
<text  x="13.05" y="927.5" ></text>
</g>
<g >
<title>exc_page_fault (46,097,715 samples, 0.05%)</title><rect x="22.1" y="661" width="1.1" height="47.0" fill="rgb(212,35,8)" rx="2" ry="2" />
<text  x="25.06" y="687.5" ></text>
</g>
<g >
<title>smp_call_function_single_async (47,594,978 samples, 0.05%)</title><rect x="2341.1" y="277" width="1.1" height="47.0" fill="rgb(208,14,3)" rx="2" ry="2" />
<text  x="2344.06" y="303.5" ></text>
</g>
<g >
<title>__irq_exit_rcu (47,409,948 samples, 0.05%)</title><rect x="1124.4" y="661" width="1.1" height="47.0" fill="rgb(227,101,24)" rx="2" ry="2" />
<text  x="1127.37" y="687.5" ></text>
</g>
<g >
<title>[unknown]  (4,654,093 samples, 0.00%)</title><rect x="23.4" y="709" width="0.1" height="47.0" fill="rgb(253,223,53)" rx="2" ry="2" />
<text  x="26.44" y="735.5" ></text>
</g>
<g >
<title>asm_sysvec_apic_timer_interrupt (142,555,662 samples, 0.14%)</title><rect x="1441.6" y="805" width="3.4" height="47.0" fill="rgb(232,127,30)" rx="2" ry="2" />
<text  x="1444.57" y="831.5" ></text>
</g>
<g >
<title>[unknown] (5,709,680 samples, 0.01%)</title><rect x="23.2" y="853" width="0.2" height="47.0" fill="rgb(210,24,5)" rx="2" ry="2" />
<text  x="26.24" y="879.5" ></text>
</g>
<g >
<title>ath11k_pcic_ce_tasklet (47,409,948 samples, 0.05%)</title><rect x="1124.4" y="469" width="1.1" height="47.0" fill="rgb(218,60,14)" rx="2" ry="2" />
<text  x="1127.37" y="495.5" ></text>
</g>
<g >
<title>tasklet_action (47,409,948 samples, 0.05%)</title><rect x="1124.4" y="565" width="1.1" height="47.0" fill="rgb(218,64,15)" rx="2" ry="2" />
<text  x="1127.37" y="591.5" ></text>
</g>
<g >
<title>__hrtimer_run_queues (47,539,411 samples, 0.05%)</title><rect x="147.3" y="613" width="1.1" height="47.0" fill="rgb(237,150,35)" rx="2" ry="2" />
<text  x="150.25" y="639.5" ></text>
</g>
<g >
<title>zap_pte_range (42,986,472 samples, 0.04%)</title><rect x="23.6" y="229" width="1.0" height="47.0" fill="rgb(231,120,28)" rx="2" ry="2" />
<text  x="26.56" y="255.5" ></text>
</g>
<g >
<title>default_send_IPI_single_phys (47,594,978 samples, 0.05%)</title><rect x="2341.1" y="85" width="1.1" height="47.0" fill="rgb(243,175,41)" rx="2" ry="2" />
<text  x="2344.06" y="111.5" ></text>
</g>
<g >
<title>Vector::operator* (33,544,348,422 samples, 33.84%)</title><rect x="1526.6" y="853" width="805.3" height="47.0" fill="rgb(233,131,31)" rx="2" ry="2" />
<text  x="1529.61" y="879.5" >Vector::operator*</text>
</g>
<g >
<title>main.exe (98,526,484,567 samples, 99.39%)</title><rect x="24.6" y="949" width="2365.4" height="47.0" fill="rgb(216,53,12)" rx="2" ry="2" />
<text  x="27.59" y="975.5" >main.exe</text>
</g>
<g >
<title>[unknown]  (81,537,978 samples, 0.08%)</title><rect x="18.6" y="565" width="2.0" height="47.0" fill="rgb(253,223,53)" rx="2" ry="2" />
<text  x="21.65" y="591.5" ></text>
</g>
<g >
<title>userfaultfd_unmap_complete (46,311,976 samples, 0.05%)</title><rect x="19.5" y="181" width="1.1" height="47.0" fill="rgb(248,200,47)" rx="2" ry="2" />
<text  x="22.49" y="207.5" ></text>
</g>
<g >
<title>vma_alloc_folio (5,191,056 samples, 0.01%)</title><rect x="23.3" y="373" width="0.1" height="47.0" fill="rgb(245,187,44)" rx="2" ry="2" />
<text  x="26.25" y="399.5" ></text>
</g>
<g >
<title>filemap_map_pages (46,097,715 samples, 0.05%)</title><rect x="22.1" y="325" width="1.1" height="47.0" fill="rgb(229,112,27)" rx="2" ry="2" />
<text  x="25.06" y="351.5" ></text>
</g>
<g >
<title>do_syscall_64 (43,393,895 samples, 0.04%)</title><rect x="23.5" y="853" width="1.1" height="47.0" fill="rgb(209,20,4)" rx="2" ry="2" />
<text  x="26.55" y="879.5" ></text>
</g>
<g >
<title>hrtimer_interrupt (47,594,978 samples, 0.05%)</title><rect x="2341.1" y="661" width="1.1" height="47.0" fill="rgb(228,109,26)" rx="2" ry="2" />
<text  x="2344.06" y="687.5" ></text>
</g>
<g >
<title>irqentry_exit_to_user_mode (47,331,415 samples, 0.05%)</title><rect x="2342.2" y="661" width="1.1" height="47.0" fill="rgb(254,229,54)" rx="2" ry="2" />
<text  x="2345.20" y="687.5" ></text>
</g>
<g >
<title>[unknown]  (46,311,976 samples, 0.05%)</title><rect x="19.5" y="517" width="1.1" height="47.0" fill="rgb(253,223,53)" rx="2" ry="2" />
<text  x="22.49" y="543.5" ></text>
</g>
<g >
<title>__raw_spin_lock_irqsave (47,396,024 samples, 0.05%)</title><rect x="1443.9" y="565" width="1.1" height="47.0" fill="rgb(233,132,31)" rx="2" ry="2" />
<text  x="1446.86" y="591.5" ></text>
</g>
<g >
<title>iommu_completion_wait.isra.0 (47,647,298 samples, 0.05%)</title><rect x="1128.9" y="229" width="1.2" height="47.0" fill="rgb(225,94,22)" rx="2" ry="2" />
<text  x="1131.92" y="255.5" ></text>
</g>
<g >
<title>handle_softirqs (47,409,948 samples, 0.05%)</title><rect x="1124.4" y="613" width="1.1" height="47.0" fill="rgb(238,156,37)" rx="2" ry="2" />
<text  x="1127.37" y="639.5" ></text>
</g>
<g >
<title>common_interrupt (47,409,948 samples, 0.05%)</title><rect x="1124.4" y="757" width="1.1" height="47.0" fill="rgb(215,46,11)" rx="2" ry="2" />
<text  x="1127.37" y="783.5" ></text>
</g>
<g >
<title>[unknown]  (263,670,913 samples, 0.27%)</title><rect x="14.3" y="613" width="6.3" height="47.0" fill="rgb(253,223,53)" rx="2" ry="2" />
<text  x="17.27" y="639.5" ></text>
</g>
<g >
<title>__sysvec_apic_timer_interrupt (47,539,411 samples, 0.05%)</title><rect x="147.3" y="709" width="1.1" height="47.0" fill="rgb(242,173,41)" rx="2" ry="2" />
<text  x="150.25" y="735.5" ></text>
</g>
<g >
<title>hrtimer_interrupt (142,555,662 samples, 0.14%)</title><rect x="1441.6" y="661" width="3.4" height="47.0" fill="rgb(228,109,26)" rx="2" ry="2" />
<text  x="1444.57" y="687.5" ></text>
</g>
<g >
<title>ffmpeg (605,574,832 samples, 0.61%)</title><rect x="10.1" y="949" width="14.5" height="47.0" fill="rgb(250,208,49)" rx="2" ry="2" />
<text  x="13.05" y="975.5" ></text>
</g>
<g >
<title>__sysvec_apic_timer_interrupt (142,555,662 samples, 0.14%)</title><rect x="1441.6" y="709" width="3.4" height="47.0" fill="rgb(242,173,41)" rx="2" ry="2" />
<text  x="1444.57" y="735.5" ></text>
</g>
<g >
<title>__handle_mm_fault (60,650,412 samples, 0.06%)</title><rect x="20.6" y="469" width="1.5" height="47.0" fill="rgb(207,9,2)" rx="2" ry="2" />
<text  x="23.61" y="495.5" ></text>
</g>
<g >
<title>__irq_exit_rcu (47,368,342 samples, 0.05%)</title><rect x="2330.8" y="661" width="1.1" height="47.0" fill="rgb(227,101,24)" rx="2" ry="2" />
<text  x="2333.80" y="687.5" ></text>
</g>
<g >
<title>ath11k_hal_srng_access_begin (47,580,809 samples, 0.05%)</title><rect x="1440.4" y="325" width="1.2" height="47.0" fill="rgb(251,214,51)" rx="2" ry="2" />
<text  x="1443.43" y="351.5" ></text>
</g>
<g >
<title>tick_sched_handle (47,594,978 samples, 0.05%)</title><rect x="2341.1" y="517" width="1.1" height="47.0" fill="rgb(219,68,16)" rx="2" ry="2" />
<text  x="2344.06" y="543.5" ></text>
</g>
<g >
<title>sysvec_apic_timer_interrupt (189,947,746 samples, 0.19%)</title><rect x="1125.5" y="757" width="4.6" height="47.0" fill="rgb(220,69,16)" rx="2" ry="2" />
<text  x="1128.50" y="783.5" ></text>
</g>
<g >
<title>do_syscall_64 (46,311,976 samples, 0.05%)</title><rect x="19.5" y="373" width="1.1" height="47.0" fill="rgb(209,20,4)" rx="2" ry="2" />
<text  x="22.49" y="399.5" ></text>
</g>
<g >
<title>task_mm_cid_work (47,331,415 samples, 0.05%)</title><rect x="2342.2" y="565" width="1.1" height="47.0" fill="rgb(226,101,24)" rx="2" ry="2" />
<text  x="2345.20" y="591.5" ></text>
</g>
<g >
<title>entry_SYSCALL_64_after_hwframe (46,311,976 samples, 0.05%)</title><rect x="19.5" y="421" width="1.1" height="47.0" fill="rgb(218,63,15)" rx="2" ry="2" />
<text  x="22.49" y="447.5" ></text>
</g>
<g >
<title>Vector::operator+ (475,000,410 samples, 0.48%)</title><rect x="2331.9" y="853" width="11.4" height="47.0" fill="rgb(227,102,24)" rx="2" ry="2" />
<text  x="2334.93" y="879.5" ></text>
</g>
<g >
<title>calcColor (1,040,405,298 samples, 1.05%)</title><rect x="2363.9" y="853" width="25.0" height="47.0" fill="rgb(209,19,4)" rx="2" ry="2" />
<text  x="2366.88" y="879.5" >c..</text>
</g>
<g >
<title>__lruvec_stat_mod_folio (42,986,472 samples, 0.04%)</title><rect x="23.6" y="133" width="1.0" height="47.0" fill="rgb(246,191,45)" rx="2" ry="2" />
<text  x="26.56" y="159.5" ></text>
</g>
<g >
<title>handle_softirqs (47,368,342 samples, 0.05%)</title><rect x="2330.8" y="613" width="1.1" height="47.0" fill="rgb(238,156,37)" rx="2" ry="2" />
<text  x="2333.80" y="639.5" ></text>
</g>
<g >
<title>do_read_fault (46,097,715 samples, 0.05%)</title><rect x="22.1" y="373" width="1.1" height="47.0" fill="rgb(223,84,20)" rx="2" ry="2" />
<text  x="25.06" y="399.5" ></text>
</g>
<g >
<title>ath11k_ce_per_engine_service (47,580,809 samples, 0.05%)</title><rect x="1440.4" y="421" width="1.2" height="47.0" fill="rgb(248,199,47)" rx="2" ry="2" />
<text  x="1443.43" y="447.5" ></text>
</g>
<g >
<title>handle_softirqs (47,580,809 samples, 0.05%)</title><rect x="1440.4" y="613" width="1.2" height="47.0" fill="rgb(238,156,37)" rx="2" ry="2" />
<text  x="1443.43" y="639.5" ></text>
</g>
<g >
<title>x64_sys_call (43,393,895 samples, 0.04%)</title><rect x="23.5" y="805" width="1.1" height="47.0" fill="rgb(247,194,46)" rx="2" ry="2" />
<text  x="26.55" y="831.5" ></text>
</g>
<g >
<title>trigger_load_balance (47,594,978 samples, 0.05%)</title><rect x="2341.1" y="373" width="1.1" height="47.0" fill="rgb(228,108,26)" rx="2" ry="2" />
<text  x="2344.06" y="399.5" ></text>
</g>
<g >
<title>Triangle::getLightIntersection (569,369,587 samples, 0.57%)</title><rect x="1445.0" y="853" width="13.7" height="47.0" fill="rgb(220,72,17)" rx="2" ry="2" />
<text  x="1448.00" y="879.5" ></text>
</g>
<g >
<title>__smp_call_single_queue (47,594,978 samples, 0.05%)</title><rect x="2341.1" y="181" width="1.1" height="47.0" fill="rgb(219,66,15)" rx="2" ry="2" />
<text  x="2344.06" y="207.5" ></text>
</g>
<g >
<title>x64_sys_call (46,311,976 samples, 0.05%)</title><rect x="19.5" y="325" width="1.1" height="47.0" fill="rgb(247,194,46)" rx="2" ry="2" />
<text  x="22.49" y="351.5" ></text>
</g>
<g >
<title>tick_sched_handle (94,973,390 samples, 0.10%)</title><rect x="1126.6" y="517" width="2.3" height="47.0" fill="rgb(219,68,16)" rx="2" ry="2" />
<text  x="1129.64" y="543.5" ></text>
</g>
<g >
<title>[unknown]  (371,109,506 samples, 0.37%)</title><rect x="14.3" y="901" width="8.9" height="47.0" fill="rgb(253,223,53)" rx="2" ry="2" />
<text  x="17.27" y="927.5" ></text>
</g>
<g >
<title>all (99,134,544,020 samples, 100%)</title><rect x="10.0" y="997" width="2380.0" height="47.0" fill="rgb(213,39,9)" rx="2" ry="2" />
<text  x="13.00" y="1023.5" ></text>
</g>
<g >
<title>__const_udelay (47,647,298 samples, 0.05%)</title><rect x="1128.9" y="181" width="1.2" height="47.0" fill="rgb(252,220,52)" rx="2" ry="2" />
<text  x="1131.92" y="207.5" ></text>
</g>
<g >
<title>__handle_mm_fault (5,191,056 samples, 0.01%)</title><rect x="23.3" y="565" width="0.1" height="47.0" fill="rgb(207,9,2)" rx="2" ry="2" />
<text  x="26.25" y="591.5" ></text>
</g>
<g >
<title>do_user_addr_fault (46,097,715 samples, 0.05%)</title><rect x="22.1" y="613" width="1.1" height="47.0" fill="rgb(228,108,25)" rx="2" ry="2" />
<text  x="25.06" y="639.5" ></text>
</g>
<g >
<title>exit_mm (42,986,472 samples, 0.04%)</title><rect x="23.6" y="613" width="1.0" height="47.0" fill="rgb(236,144,34)" rx="2" ry="2" />
<text  x="26.56" y="639.5" ></text>
</g>
<g >
<title>calc_global_load_tick (47,441,523 samples, 0.05%)</title><rect x="1127.8" y="421" width="1.1" height="47.0" fill="rgb(236,142,34)" rx="2" ry="2" />
<text  x="1130.78" y="447.5" ></text>
</g>
<g >
<title>exc_page_fault (4,654,093 samples, 0.00%)</title><rect x="23.4" y="613" width="0.1" height="47.0" fill="rgb(212,35,8)" rx="2" ry="2" />
<text  x="26.44" y="639.5" ></text>
</g>
<g >
<title>__run_timers (47,647,298 samples, 0.05%)</title><rect x="1128.9" y="517" width="1.2" height="47.0" fill="rgb(206,5,1)" rx="2" ry="2" />
<text  x="1131.92" y="543.5" ></text>
</g>
<g >
<title>[unknown]  (4,654,093 samples, 0.00%)</title><rect x="23.4" y="757" width="0.1" height="47.0" fill="rgb(253,223,53)" rx="2" ry="2" />
<text  x="26.44" y="783.5" ></text>
</g>
<g >
<title>generic_exec_single (47,594,978 samples, 0.05%)</title><rect x="2341.1" y="229" width="1.1" height="47.0" fill="rgb(234,134,32)" rx="2" ry="2" />
<text  x="2344.06" y="255.5" ></text>
</g>
<g >
<title>asm_exc_page_fault (5,191,056 samples, 0.01%)</title><rect x="23.3" y="757" width="0.1" height="47.0" fill="rgb(225,93,22)" rx="2" ry="2" />
<text  x="26.25" y="783.5" ></text>
</g>
<g >
<title>tasklet_action (47,580,809 samples, 0.05%)</title><rect x="1440.4" y="565" width="1.2" height="47.0" fill="rgb(218,64,15)" rx="2" ry="2" />
<text  x="1443.43" y="591.5" ></text>
</g>
<g >
<title>handle_pte_fault (46,097,715 samples, 0.05%)</title><rect x="22.1" y="469" width="1.1" height="47.0" fill="rgb(217,57,13)" rx="2" ry="2" />
<text  x="25.06" y="495.5" ></text>
</g>
<g >
<title>irq_exit_rcu (47,647,298 samples, 0.05%)</title><rect x="1128.9" y="709" width="1.2" height="47.0" fill="rgb(254,227,54)" rx="2" ry="2" />
<text  x="1131.92" y="735.5" ></text>
</g>
<g >
<title>dma_unmap_page_attrs (47,409,948 samples, 0.05%)</title><rect x="1124.4" y="325" width="1.1" height="47.0" fill="rgb(252,218,52)" rx="2" ry="2" />
<text  x="1127.37" y="351.5" ></text>
</g>
<g >
<title>irqentry_exit (47,331,415 samples, 0.05%)</title><rect x="2342.2" y="709" width="1.1" height="47.0" fill="rgb(219,66,15)" rx="2" ry="2" />
<text  x="2345.20" y="735.5" ></text>
</g>
<g >
<title>vma_alloc_folio (60,650,412 samples, 0.06%)</title><rect x="20.6" y="325" width="1.5" height="47.0" fill="rgb(245,187,44)" rx="2" ry="2" />
<text  x="23.61" y="351.5" ></text>
</g>
<g >
<title>atan2f32x (47,454,780 samples, 0.05%)</title><rect x="2387.7" y="805" width="1.2" height="47.0" fill="rgb(240,164,39)" rx="2" ry="2" />
<text  x="2390.71" y="831.5" ></text>
</g>
<g >
<title>delay_halt_mwaitx (47,647,298 samples, 0.05%)</title><rect x="1128.9" y="37" width="1.2" height="47.0" fill="rgb(234,133,31)" rx="2" ry="2" />
<text  x="1131.92" y="63.5" ></text>
</g>
<g >
<title>irq_work_tick (47,651,599 samples, 0.05%)</title><rect x="1442.7" y="469" width="1.2" height="47.0" fill="rgb(219,67,16)" rx="2" ry="2" />
<text  x="1445.71" y="495.5" ></text>
</g>
<g >
<title>update_process_times (47,594,978 samples, 0.05%)</title><rect x="2341.1" y="469" width="1.1" height="47.0" fill="rgb(250,209,50)" rx="2" ry="2" />
<text  x="2344.06" y="495.5" ></text>
</g>
<g >
<title>__hrtimer_run_queues (95,159,638 samples, 0.10%)</title><rect x="1441.6" y="613" width="2.3" height="47.0" fill="rgb(237,150,35)" rx="2" ry="2" />
<text  x="1444.57" y="639.5" ></text>
</g>
<g >
<title>call_timer_fn (47,647,298 samples, 0.05%)</title><rect x="1128.9" y="469" width="1.2" height="47.0" fill="rgb(234,135,32)" rx="2" ry="2" />
<text  x="1131.92" y="495.5" ></text>
</g>
<g >
<title>[libm.so.6] (47,454,780 samples, 0.05%)</title><rect x="2387.7" y="757" width="1.2" height="47.0" fill="rgb(208,16,4)" rx="2" ry="2" />
<text  x="2390.71" y="783.5" ></text>
</g>
<g >
<title>__hrtimer_run_queues (47,594,978 samples, 0.05%)</title><rect x="2341.1" y="613" width="1.1" height="47.0" fill="rgb(237,150,35)" rx="2" ry="2" />
<text  x="2344.06" y="639.5" ></text>
</g>
<g >
<title>Vector::operator- (855,469,264 samples, 0.86%)</title><rect x="2343.3" y="853" width="20.6" height="47.0" fill="rgb(214,42,10)" rx="2" ry="2" />
<text  x="2346.34" y="879.5" ></text>
</g>
<g >
<title>handle_pte_fault (60,650,412 samples, 0.06%)</title><rect x="20.6" y="421" width="1.5" height="47.0" fill="rgb(217,57,13)" rx="2" ry="2" />
<text  x="23.61" y="447.5" ></text>
</g>
<g >
<title>tick_nohz_highres_handler (94,973,390 samples, 0.10%)</title><rect x="1126.6" y="565" width="2.3" height="47.0" fill="rgb(215,50,11)" rx="2" ry="2" />
<text  x="1129.64" y="591.5" ></text>
</g>
<g >
<title>ath11k_ce_per_engine_service (47,409,948 samples, 0.05%)</title><rect x="1124.4" y="421" width="1.1" height="47.0" fill="rgb(248,199,47)" rx="2" ry="2" />
<text  x="1127.37" y="447.5" ></text>
</g>
<g >
<title>asm_sysvec_apic_timer_interrupt (94,926,393 samples, 0.10%)</title><rect x="2341.1" y="805" width="2.2" height="47.0" fill="rgb(232,127,30)" rx="2" ry="2" />
<text  x="2344.06" y="831.5" ></text>
</g>
<g >
<title>asm_common_interrupt (47,580,809 samples, 0.05%)</title><rect x="1440.4" y="805" width="1.2" height="47.0" fill="rgb(227,105,25)" rx="2" ry="2" />
<text  x="1443.43" y="831.5" ></text>
</g>
<g >
<title>do_user_addr_fault (5,191,056 samples, 0.01%)</title><rect x="23.3" y="661" width="0.1" height="47.0" fill="rgb(228,108,25)" rx="2" ry="2" />
<text  x="26.25" y="687.5" ></text>
</g>
<g >
<title>unmap_single_vma (42,986,472 samples, 0.04%)</title><rect x="23.6" y="373" width="1.0" height="47.0" fill="rgb(225,93,22)" rx="2" ry="2" />
<text  x="26.56" y="399.5" ></text>
</g>
<g >
<title>exit_mmap (42,986,472 samples, 0.04%)</title><rect x="23.6" y="469" width="1.0" height="47.0" fill="rgb(236,143,34)" rx="2" ry="2" />
<text  x="26.56" y="495.5" ></text>
</g>
<g >
<title>handle_mm_fault (46,097,715 samples, 0.05%)</title><rect x="22.1" y="565" width="1.1" height="47.0" fill="rgb(234,135,32)" rx="2" ry="2" />
<text  x="25.06" y="591.5" ></text>
</g>
<g >
<title>Plane::getIntersection (5,156,246,594 samples, 5.20%)</title><rect x="24.6" y="853" width="123.8" height="47.0" fill="rgb(232,126,30)" rx="2" ry="2" />
<text  x="27.60" y="879.5" >Plane::getInter..</text>
</g>
<g >
<title>do_user_addr_fault (60,650,412 samples, 0.06%)</title><rect x="20.6" y="565" width="1.5" height="47.0" fill="rgb(228,108,25)" rx="2" ry="2" />
<text  x="23.61" y="591.5" ></text>
</g>
<g >
<title>ath11k_pcic_ce_tasklet (47,580,809 samples, 0.05%)</title><rect x="1440.4" y="469" width="1.2" height="47.0" fill="rgb(218,60,14)" rx="2" ry="2" />
<text  x="1443.43" y="495.5" ></text>
</g>
<g >
<title>do_fault (60,650,412 samples, 0.06%)</title><rect x="20.6" y="373" width="1.5" height="47.0" fill="rgb(248,200,47)" rx="2" ry="2" />
<text  x="23.61" y="399.5" ></text>
</g>
<g >
<title>tick_nohz_highres_handler (47,594,978 samples, 0.05%)</title><rect x="2341.1" y="565" width="1.1" height="47.0" fill="rgb(215,50,11)" rx="2" ry="2" />
<text  x="2344.06" y="591.5" ></text>
</g>
<g >
<title>sysvec_apic_timer_interrupt (47,539,411 samples, 0.05%)</title><rect x="147.3" y="757" width="1.1" height="47.0" fill="rgb(220,69,16)" rx="2" ry="2" />
<text  x="150.25" y="783.5" ></text>
</g>
<g >
<title>Vector::dot (2,687,491,928 samples, 2.71%)</title><rect x="1462.1" y="853" width="64.5" height="47.0" fill="rgb(251,213,51)" rx="2" ry="2" />
<text  x="1465.09" y="879.5" >Vector:..</text>
</g>
<g >
<title>__hrtimer_run_queues (142,300,448 samples, 0.14%)</title><rect x="1125.5" y="613" width="3.4" height="47.0" fill="rgb(237,150,35)" rx="2" ry="2" />
<text  x="1128.50" y="639.5" ></text>
</g>
<g >
<title>[unknown]  (370,666,401 samples, 0.37%)</title><rect x="14.3" y="757" width="8.9" height="47.0" fill="rgb(253,223,53)" rx="2" ry="2" />
<text  x="17.27" y="783.5" ></text>
</g>
<g >
<title>sysvec_apic_timer_interrupt (94,926,393 samples, 0.10%)</title><rect x="2341.1" y="757" width="2.2" height="47.0" fill="rgb(220,69,16)" rx="2" ry="2" />
<text  x="2344.06" y="783.5" ></text>
</g>
<g >
<title>timekeeping_advance (47,508,039 samples, 0.05%)</title><rect x="1441.6" y="373" width="1.1" height="47.0" fill="rgb(227,104,25)" rx="2" ry="2" />
<text  x="1444.57" y="399.5" ></text>
</g>
<g >
<title>handle_mm_fault (5,191,056 samples, 0.01%)</title><rect x="23.3" y="613" width="0.1" height="47.0" fill="rgb(234,135,32)" rx="2" ry="2" />
<text  x="26.25" y="639.5" ></text>
</g>
<g >
<title>run_timer_softirq (47,647,298 samples, 0.05%)</title><rect x="1128.9" y="565" width="1.2" height="47.0" fill="rgb(249,206,49)" rx="2" ry="2" />
<text  x="1131.92" y="591.5" ></text>
</g>
<g >
<title>__irq_exit_rcu (47,580,809 samples, 0.05%)</title><rect x="1440.4" y="661" width="1.2" height="47.0" fill="rgb(227,101,24)" rx="2" ry="2" />
<text  x="1443.43" y="687.5" ></text>
</g>
<g >
<title>irq_exit_rcu (47,368,342 samples, 0.05%)</title><rect x="2330.8" y="709" width="1.1" height="47.0" fill="rgb(254,227,54)" rx="2" ry="2" />
<text  x="2333.80" y="735.5" ></text>
</g>
<g >
<title>amd_iommu_flush_iotlb_all (47,647,298 samples, 0.05%)</title><rect x="1128.9" y="325" width="1.2" height="47.0" fill="rgb(248,198,47)" rx="2" ry="2" />
<text  x="1131.92" y="351.5" ></text>
</g>
<g >
<title>[unknown]  (4,654,093 samples, 0.00%)</title><rect x="23.4" y="805" width="0.1" height="47.0" fill="rgb(253,223,53)" rx="2" ry="2" />
<text  x="26.44" y="831.5" ></text>
</g>
<g >
<title>__sysvec_apic_timer_interrupt (142,300,448 samples, 0.14%)</title><rect x="1125.5" y="709" width="3.4" height="47.0" fill="rgb(242,173,41)" rx="2" ry="2" />
<text  x="1128.50" y="735.5" ></text>
</g>
<g >
<title>sysvec_apic_timer_interrupt (142,555,662 samples, 0.14%)</title><rect x="1441.6" y="757" width="3.4" height="47.0" fill="rgb(220,69,16)" rx="2" ry="2" />
<text  x="1444.57" y="783.5" ></text>
</g>
<g >
<title>__handle_mm_fault (46,097,715 samples, 0.05%)</title><rect x="22.1" y="517" width="1.1" height="47.0" fill="rgb(207,9,2)" rx="2" ry="2" />
<text  x="25.06" y="543.5" ></text>
</g>
<g >
<title>do_exit (42,986,472 samples, 0.04%)</title><rect x="23.6" y="661" width="1.0" height="47.0" fill="rgb(231,122,29)" rx="2" ry="2" />
<text  x="26.56" y="687.5" ></text>
</g>
<g >
<title>acct_account_cputime (47,531,867 samples, 0.05%)</title><rect x="1126.6" y="325" width="1.2" height="47.0" fill="rgb(239,159,38)" rx="2" ry="2" />
<text  x="1129.64" y="351.5" ></text>
</g>
<g >
<title>task_work_run (47,331,415 samples, 0.05%)</title><rect x="2342.2" y="613" width="1.1" height="47.0" fill="rgb(209,22,5)" rx="2" ry="2" />
<text  x="2345.20" y="639.5" ></text>
</g>
<g >
<title>alloc_anon_folio (5,191,056 samples, 0.01%)</title><rect x="23.3" y="421" width="0.1" height="47.0" fill="rgb(223,86,20)" rx="2" ry="2" />
<text  x="26.25" y="447.5" ></text>
</g>
<g >
<title>asm_sysvec_apic_timer_interrupt (189,947,746 samples, 0.19%)</title><rect x="1125.5" y="805" width="4.6" height="47.0" fill="rgb(232,127,30)" rx="2" ry="2" />
<text  x="1128.50" y="831.5" ></text>
</g>
<g >
<title>[unknown] (98,525,897,829 samples, 99.39%)</title><rect x="24.6" y="901" width="2365.4" height="47.0" fill="rgb(210,24,5)" rx="2" ry="2" />
<text  x="27.60" y="927.5" >[unknown]</text>
</g>
<g >
<title>amd_iommu_domain_flush_pages (47,647,298 samples, 0.05%)</title><rect x="1128.9" y="277" width="1.2" height="47.0" fill="rgb(252,216,51)" rx="2" ry="2" />
<text  x="1131.92" y="303.5" ></text>
</g>
<g >
<title>x264_8_trellis_coefn (5,191,056 samples, 0.01%)</title><rect x="23.3" y="805" width="0.1" height="47.0" fill="rgb(244,181,43)" rx="2" ry="2" />
<text  x="26.25" y="831.5" ></text>
</g>
<g >
<title>native_send_call_func_single_ipi (47,594,978 samples, 0.05%)</title><rect x="2341.1" y="133" width="1.1" height="47.0" fill="rgb(210,23,5)" rx="2" ry="2" />
<text  x="2344.06" y="159.5" ></text>
</g>
<g >
<title>do_anonymous_page (5,191,056 samples, 0.01%)</title><rect x="23.3" y="469" width="0.1" height="47.0" fill="rgb(238,155,37)" rx="2" ry="2" />
<text  x="26.25" y="495.5" ></text>
</g>
<g >
<title>[unknown]  (263,918,274 samples, 0.27%)</title><rect x="14.3" y="661" width="6.3" height="47.0" fill="rgb(253,223,53)" rx="2" ry="2" />
<text  x="17.27" y="687.5" ></text>
</g>
<g >
<title>ath11k_ce_recv_process_cb (47,409,948 samples, 0.05%)</title><rect x="1124.4" y="373" width="1.1" height="47.0" fill="rgb(226,100,23)" rx="2" ry="2" />
<text  x="1127.37" y="399.5" ></text>
</g>
<g >
<title>fq_flush_timeout (47,647,298 samples, 0.05%)</title><rect x="1128.9" y="421" width="1.2" height="47.0" fill="rgb(213,40,9)" rx="2" ry="2" />
<text  x="1131.92" y="447.5" ></text>
</g>
<g >
<title>__sysvec_apic_timer_interrupt (47,594,978 samples, 0.05%)</title><rect x="2341.1" y="709" width="1.1" height="47.0" fill="rgb(242,173,41)" rx="2" ry="2" />
<text  x="2344.06" y="735.5" ></text>
</g>
<g >
<title>zap_pmd_range.isra.0 (42,986,472 samples, 0.04%)</title><rect x="23.6" y="277" width="1.0" height="47.0" fill="rgb(244,180,43)" rx="2" ry="2" />
<text  x="26.56" y="303.5" ></text>
</g>
<g >
<title>tick_do_update_jiffies64 (47,508,039 samples, 0.05%)</title><rect x="1441.6" y="469" width="1.1" height="47.0" fill="rgb(208,14,3)" rx="2" ry="2" />
<text  x="1444.57" y="495.5" ></text>
</g>
<g >
<title>asm_common_interrupt (47,409,948 samples, 0.05%)</title><rect x="1124.4" y="805" width="1.1" height="47.0" fill="rgb(227,105,25)" rx="2" ry="2" />
<text  x="1127.37" y="831.5" ></text>
</g>
<g >
<title>exc_page_fault (60,650,412 samples, 0.06%)</title><rect x="20.6" y="613" width="1.5" height="47.0" fill="rgb(212,35,8)" rx="2" ry="2" />
<text  x="23.61" y="639.5" ></text>
</g>
<g >
<title>asm_exc_page_fault (4,654,093 samples, 0.00%)</title><rect x="23.4" y="661" width="0.1" height="47.0" fill="rgb(225,93,22)" rx="2" ry="2" />
<text  x="26.44" y="687.5" ></text>
</g>
<g >
<title>irq_exit_rcu (47,580,809 samples, 0.05%)</title><rect x="1440.4" y="709" width="1.2" height="47.0" fill="rgb(254,227,54)" rx="2" ry="2" />
<text  x="1443.43" y="735.5" ></text>
</g>
<g >
<title>entry_SYSCALL_64_after_hwframe (43,393,895 samples, 0.04%)</title><rect x="23.5" y="901" width="1.1" height="47.0" fill="rgb(218,63,15)" rx="2" ry="2" />
<text  x="26.55" y="927.5" ></text>
</g>
<g >
<title>asm_exc_page_fault (46,097,715 samples, 0.05%)</title><rect x="22.1" y="709" width="1.1" height="47.0" fill="rgb(225,93,22)" rx="2" ry="2" />
<text  x="25.06" y="735.5" ></text>
</g>
<g >
<title>account_user_time (47,531,867 samples, 0.05%)</title><rect x="1126.6" y="373" width="1.2" height="47.0" fill="rgb(225,96,23)" rx="2" ry="2" />
<text  x="1129.64" y="399.5" ></text>
</g>
<g >
<title>__x64_sys_mmap (46,311,976 samples, 0.05%)</title><rect x="19.5" y="277" width="1.1" height="47.0" fill="rgb(223,83,19)" rx="2" ry="2" />
<text  x="22.49" y="303.5" ></text>
</g>
<g >
<title>hrtimer_interrupt (47,539,411 samples, 0.05%)</title><rect x="147.3" y="661" width="1.1" height="47.0" fill="rgb(228,109,26)" rx="2" ry="2" />
<text  x="150.25" y="687.5" ></text>
</g>
<g >
<title>[unknown]  (46,311,976 samples, 0.05%)</title><rect x="19.5" y="469" width="1.1" height="47.0" fill="rgb(253,223,53)" rx="2" ry="2" />
<text  x="22.49" y="495.5" ></text>
</g>
<g >
<title>refresh (47,409,461 samples, 0.05%)</title><rect x="2388.9" y="853" width="1.1" height="47.0" fill="rgb(212,32,7)" rx="2" ry="2" />
<text  x="2391.85" y="879.5" ></text>
</g>
<g >
<title>Triangle::getIntersection (13,117,899,689 samples, 13.23%)</title><rect x="1130.1" y="853" width="314.9" height="47.0" fill="rgb(226,98,23)" rx="2" ry="2" />
<text  x="1133.07" y="879.5" >Triangle::getIntersection</text>
</g>
<g >
<title>[unknown]  (370,666,401 samples, 0.37%)</title><rect x="14.3" y="805" width="8.9" height="47.0" fill="rgb(253,223,53)" rx="2" ry="2" />
<text  x="17.27" y="831.5" ></text>
</g>
<g >
<title>handle_softirqs (47,647,298 samples, 0.05%)</title><rect x="1128.9" y="613" width="1.2" height="47.0" fill="rgb(238,156,37)" rx="2" ry="2" />
<text  x="1131.92" y="639.5" ></text>
</g>
<g >
<title>update_process_times (94,973,390 samples, 0.10%)</title><rect x="1126.6" y="469" width="2.3" height="47.0" fill="rgb(250,209,50)" rx="2" ry="2" />
<text  x="1129.64" y="495.5" ></text>
</g>
<g >
<title>ksys_mmap_pgoff (46,311,976 samples, 0.05%)</title><rect x="19.5" y="229" width="1.1" height="47.0" fill="rgb(245,185,44)" rx="2" ry="2" />
<text  x="22.49" y="255.5" ></text>
</g>
<g >
<title>asm_sysvec_apic_timer_interrupt (47,539,411 samples, 0.05%)</title><rect x="147.3" y="805" width="1.1" height="47.0" fill="rgb(232,127,30)" rx="2" ry="2" />
<text  x="150.25" y="831.5" ></text>
</g>
<g >
<title>tick_sched_do_timer (47,539,411 samples, 0.05%)</title><rect x="147.3" y="565" width="1.1" height="47.0" fill="rgb(227,104,25)" rx="2" ry="2" />
<text  x="150.25" y="591.5" ></text>
</g>
<g >
<title>nohz_balancer_kick (47,594,978 samples, 0.05%)</title><rect x="2341.1" y="325" width="1.1" height="47.0" fill="rgb(225,93,22)" rx="2" ry="2" />
<text  x="2344.06" y="351.5" ></text>
</g>
<g >
<title>irq_exit_rcu (47,409,948 samples, 0.05%)</title><rect x="1124.4" y="709" width="1.1" height="47.0" fill="rgb(254,227,54)" rx="2" ry="2" />
<text  x="1127.37" y="735.5" ></text>
</g>
<g >
<title>tick_nohz_highres_handler (95,159,638 samples, 0.10%)</title><rect x="1441.6" y="565" width="2.3" height="47.0" fill="rgb(215,50,11)" rx="2" ry="2" />
<text  x="1444.57" y="591.5" ></text>
</g>
<g >
<title>[unknown]  (4,654,093 samples, 0.00%)</title><rect x="23.4" y="853" width="0.1" height="47.0" fill="rgb(253,223,53)" rx="2" ry="2" />
<text  x="26.44" y="879.5" ></text>
</g>
</g>
</svg>
